<svg width="100" height="100" viewBox="0 0 100 100" fill="none" xmlns="http://www.w3.org/2000/svg">
<path d="M36.1822 100C21.2992 99.9143 8.98828 69.533 8.98828 54.0605C8.98828 28.7863 27.9482 23.2531 35.2553 23.2531C38.5482 23.2531 42.0645 24.5463 45.1658 25.6906C47.3346 26.4889 49.5775 27.3129 50.825 27.3129C51.5717 27.3129 53.3312 26.6119 54.8848 25.9969C58.1978 24.6779 62.3205 23.0387 67.1213 23.0387C67.1299 23.0387 67.1414 23.0387 67.1498 23.0387C70.7346 23.0387 81.6037 23.8254 88.1383 33.6387L89.6689 35.9389L87.466 37.6012C84.3189 39.9758 78.5768 44.3074 78.5768 52.8877C78.5768 63.05 85.0799 66.9582 88.2041 68.8379C89.5832 69.6676 91.0107 70.523 91.0107 72.3941C91.0107 73.6158 81.2604 99.8484 67.1012 99.8484C63.6365 99.8484 61.1875 98.807 59.0273 97.8887C56.8416 96.9588 54.9561 96.1578 51.8404 96.1578C50.2611 96.1578 48.2641 96.9045 46.1498 97.6971C43.2605 98.7754 39.9902 100 36.2795 100H36.1822Z" fill="white"/>
<path d="M68.6228 0C68.9915 13.2961 59.4827 22.5203 49.9851 21.9418C48.42 11.3311 59.4816 0 68.6228 0Z" fill="white"/>
</svg>
