<?xml version="1.0"?>
<svg xmlns="http://www.w3.org/2000/svg" xmlns:xlink="http://www.w3.org/1999/xlink" xmlns:svgjs="http://svgjs.com/svgjs" version="1.1" width="512" height="512" x="0" y="0" viewBox="0 0 512.001 512.001" style="enable-background:new 0 0 512 512" xml:space="preserve" class=""><g>
<g xmlns="http://www.w3.org/2000/svg">
	<g>
		<g>
			<path d="M95.897,186.484v44.948c0,4.465,3.618,8.084,8.084,8.084h301.81c4.466,0,8.084-3.62,8.084-8.084v-44.948     c0-4.465-3.62-8.084-8.084-8.084h-301.81C99.516,178.4,95.897,182.019,95.897,186.484z M112.065,194.568h285.642v28.78H112.065     V194.568z" fill="#7e7c7c" data-original="#000000" style=""/>
			<path d="M405.792,259.336H256c-4.466,0-8.084,3.62-8.084,8.084v69.911c0,4.465,3.619,8.084,8.084,8.084h149.792     c4.466,0,8.084-3.62,8.084-8.084V267.42C413.876,262.955,410.256,259.336,405.792,259.336z M397.708,329.247H264.084v-53.743     h133.623V329.247z" fill="#7e7c7c" data-original="#000000" style=""/>
			<path d="M222.551,259.336h-118.57c-4.466,0-8.084,3.62-8.084,8.084c0,4.465,3.618,8.084,8.084,8.084h118.57     c4.466,0,8.084-3.62,8.084-8.084C230.635,262.955,227.015,259.336,222.551,259.336z" fill="#7e7c7c" data-original="#000000" style=""/>
			<path d="M222.551,294.291h-118.57c-4.466,0-8.084,3.62-8.084,8.084c0,4.465,3.618,8.084,8.084,8.084h118.57     c4.466,0,8.084-3.62,8.084-8.084C230.635,297.91,227.015,294.291,222.551,294.291z" fill="#7e7c7c" data-original="#000000" style=""/>
			<path d="M222.551,329.247h-118.57c-4.466,0-8.084,3.62-8.084,8.084c0,4.465,3.618,8.084,8.084,8.084h118.57     c4.466,0,8.084-3.62,8.084-8.084C230.635,332.866,227.015,329.247,222.551,329.247z" fill="#7e7c7c" data-original="#000000" style=""/>
			<path d="M503.916,368.718h-22.15V110.181c0-17.523-14.256-31.779-31.779-31.779H62.012c-17.523,0-31.78,14.256-31.78,31.779     v258.537H8.084c-4.466,0-8.084,3.62-8.084,8.084v23.135c0,18.561,15.1,33.662,33.661,33.662h74.991     c4.466,0,8.084-3.62,8.084-8.084c0-4.465-3.619-8.084-8.084-8.084H33.661c-9.645,0-17.492-7.847-17.492-17.493v-15.051h22.15     H70.82h105.878v3.338c0,11.59,9.429,21.019,21.019,21.019h116.565c11.59,0,21.019-9.429,21.019-21.019v-3.338H441.18h32.502     h22.15v15.051c0,9.646-7.847,17.493-17.493,17.493H133.803c-4.466,0-8.084,3.62-8.084,8.084c0,4.465,3.619,8.084,8.084,8.084     h344.536c18.561,0,33.662-15.1,33.662-33.662v-23.135C512,372.338,508.382,368.718,503.916,368.718z M319.132,388.225     c0,2.674-2.175,4.851-4.851,4.851H197.718c-2.675,0-4.851-2.176-4.851-4.851v-3.338h126.265V388.225z M433.096,368.718H327.216     H184.783H78.904V160.736h36.934h317.258V368.718z M78.904,144.568v-16.242h28.85v16.242H78.904z M465.599,368.718h-16.334v0     V120.242c0-4.465-3.618-8.084-8.084-8.084h-39.7c-4.466,0-8.084,3.62-8.084,8.084s3.619,8.084,8.084,8.084h31.616v16.242H123.922     v-16.242h251.688c4.466,0,8.084-3.62,8.084-8.084c0-4.465-3.618-8.084-8.084-8.084H115.838H70.82     c-4.466,0-8.084,3.62-8.084,8.084v32.41v216.066H46.402V110.181c0-8.608,7.003-15.61,15.611-15.61h387.975     c8.607,0,15.61,7.003,15.61,15.61V368.718z" fill="#7e7c7c" data-original="#000000" style=""/>
		</g>
	</g>
</g>
<g xmlns="http://www.w3.org/2000/svg">
</g>
<g xmlns="http://www.w3.org/2000/svg">
</g>
<g xmlns="http://www.w3.org/2000/svg">
</g>
<g xmlns="http://www.w3.org/2000/svg">
</g>
<g xmlns="http://www.w3.org/2000/svg">
</g>
<g xmlns="http://www.w3.org/2000/svg">
</g>
<g xmlns="http://www.w3.org/2000/svg">
</g>
<g xmlns="http://www.w3.org/2000/svg">
</g>
<g xmlns="http://www.w3.org/2000/svg">
</g>
<g xmlns="http://www.w3.org/2000/svg">
</g>
<g xmlns="http://www.w3.org/2000/svg">
</g>
<g xmlns="http://www.w3.org/2000/svg">
</g>
<g xmlns="http://www.w3.org/2000/svg">
</g>
<g xmlns="http://www.w3.org/2000/svg">
</g>
<g xmlns="http://www.w3.org/2000/svg">
</g>
</g></svg>
