<?xml version="1.0"?>
<svg xmlns="http://www.w3.org/2000/svg" xmlns:xlink="http://www.w3.org/1999/xlink" xmlns:svgjs="http://svgjs.com/svgjs" version="1.1" width="512" height="512" x="0" y="0" viewBox="0 0 512 512" style="enable-background:new 0 0 512 512" xml:space="preserve" class=""><g><g xmlns="http://www.w3.org/2000/svg"><path d="m497 241h-33.2v-49.267c0-34.907-28.242-63.2-63.2-63.2h-17.133v-81.4c0-25.989-21.145-47.133-47.134-47.133h-32.133-160.667-32.133c-25.822 0-47.133 20.868-47.133 47.133v113.533h-17.133c-25.86.001-47.134 20.901-47.134 47.134 0 17.033 9.083 31.983 22.658 40.265-4.181 7.035-6.592 15.241-6.592 24.002 0 17.021 9.071 31.962 22.63 40.248-4.277 7.193-6.563 15.428-6.563 24.019 0 18.064 9.898 32.5 22.646 40.285-4.174 7.031-6.58 15.229-6.58 23.982 0 14.095 6.228 26.757 16.066 35.401v28.865c.002 25.989 21.146 47.133 47.135 47.133h224.933c12.598 0 24.435-4.906 33.319-13.802 8.908-8.898 13.814-20.735 13.814-33.332v-17.133h17.134c29.683 0 54.65-20.568 61.402-48.2h34.998c8.284 0 15-6.716 15-15v-128.533c0-8.284-6.716-15-15-15zm-338.467-211h130.667v17.133c0 9.337-7.549 17.133-17.134 17.133h-96.399c-9.357 0-17.134-7.567-17.134-17.133zm-128.533 177.8c0-9.338 7.552-17.133 17.134-17.133h17.133v34.267h-17.133c-9.447-.001-17.134-7.687-17.134-17.134zm16.066 64.267c0-9.448 7.687-17.134 17.134-17.134h48.2c9.447 0 17.133 7.686 17.133 17.134 0 9.447-7.686 17.133-17.133 17.133h-48.2c-9.447 0-17.134-7.686-17.134-17.133zm16.068 64.266c0-9.339 7.551-17.133 17.133-17.133h32.133c9.358 0 17.133 7.567 17.133 17.133 0 9.358-7.565 17.133-17.133 17.133h-32.133c-9.358.001-17.133-7.566-17.133-17.133zm16.066 64.267c0-9.447 7.686-17.133 17.133-17.133s17.134 7.686 17.134 17.133-7.687 17.133-17.134 17.133-17.133-7.686-17.133-17.133zm275.267 64.267c0 9.337-7.549 17.133-17.134 17.133h-224.933c-9.447 0-17.134-7.686-17.134-17.133v-17.16c.356.008.709.027 1.066.027 25.989 0 47.134-21.144 47.134-47.133 0-8.752-2.406-16.949-6.579-23.98 9.171-5.6 22.646-18.792 22.646-40.287 0-12.055-4.503-23.407-12.684-32.146 7.86-8.424 12.684-19.717 12.684-32.12 0-25.99-21.144-47.134-47.133-47.134h-17.133v-49.267-128.534c0-9.334 7.546-17.133 17.133-17.133h17.133v17.133c0 25.916 20.954 47.133 47.134 47.133h96.399c25.916 0 47.134-20.952 47.134-47.133v-17.133h17.133c9.447 0 17.134 7.686 17.134 17.133v81.4h-81.4c-8.284 0-15 6.716-15 15 0 52.567 42.767 95.333 95.334 95.333h1.066zm128.533-95.334h-33.2c-8.284 0-15 6.716-15 15 0 18.307-14.894 33.2-33.2 33.2h-17.133v-193.866c0-8.284-6.716-15-15-15h-16.067c-30.864 0-56.8-21.515-63.597-50.333h111.797c18.351 0 33.2 14.841 33.2 33.2v64.266c0 8.284 6.716 15 15 15h33.2z" fill="#7e7c7c" data-original="#000000" style="" class=""/><path d="m256 417.733h-64.267c-8.284 0-15 6.716-15 15s6.716 15 15 15h64.267c8.284 0 15-6.716 15-15s-6.716-15-15-15z" fill="#7e7c7c" data-original="#000000" style="" class=""/></g></g></svg>
