<svg width="664" height="323" viewBox="0 0 664 323" fill="none" xmlns="http://www.w3.org/2000/svg">
<path d="M326.206 102.958L348.499 73.6587L345.314 94.6774H358.053L333.212 123.976L338.945 102.958H326.206Z" fill="#5E8BCE"/>
<rect x="226.846" y="49.4556" width="221.652" height="98.0874" rx="12.7386" stroke="#5E8BCE" stroke-width="2.54773"/>
<path d="M326.206 183.211C326.206 179.693 329.058 176.842 332.575 176.842H354.231C357.045 176.842 359.326 179.123 359.326 181.937V209.962H326.206V183.211Z" stroke="#5E8BCE" stroke-width="2.54773"/>
<rect x="324.933" y="206.141" width="35.6682" height="61.1454" fill="#5E8BCE"/>
<rect x="339.944" y="247.356" width="6.36931" height="61.1454" fill="#5E8BCE"/>
<path d="M456.777 88.3082C456.777 83.7223 451.257 82.1512 448.497 81.9388V116.333C449.007 116.333 456.14 116.97 456.777 111.238V88.3082Z" fill="#5E8BCE"/>
<path d="M228.119 60.2832C228.119 55.0067 232.397 50.7292 237.673 50.7292H242.132V146.269H237.673C232.397 146.269 228.119 141.991 228.119 136.715V60.2832Z" fill="#1D1D1F"/>
<path d="M125.982 276V231.042H12.0889V200.124C30.3876 165.63 62.6206 115.045 108.788 48.371H159.898V201.386H191.132V231.042H159.898V276H125.982ZM45.0581 201.07V201.859H126.298V75.6612H125.667C88.0179 130.031 61.1483 171.834 45.0581 201.07ZM589.128 276V231.042H475.234V200.124C493.533 165.63 525.766 115.045 571.933 48.371H623.043V201.386H654.277V231.042H623.043V276H589.128ZM508.203 201.07V201.859H589.443V75.6612H588.812C551.163 130.031 524.294 171.834 508.203 201.07Z" fill="#1D1D1F"/>
</svg>
