<svg width="34" height="30" viewBox="0 0 34 30" fill="none" xmlns="http://www.w3.org/2000/svg">
<path d="M6.32267 6.20134L6.39339 6.27206L6.32267 6.20135C3.47083 9.05325 1.9 12.8455 1.9 16.8787V24.3933C1.9 25.4446 2.73633 26.3041 3.77867 26.3414V26.7417C3.77867 27.5577 4.44234 28.2213 5.25832 28.2213H6.66732C7.48329 28.2213 8.14697 27.5577 8.14697 26.7417V18.2877C8.14697 17.4717 7.48329 16.808 6.66732 16.808H5.25832C4.44234 16.808 3.77867 17.4717 3.77867 18.2877V18.6867H2.98063V16.8787C2.98063 13.1338 4.43874 9.6135 7.08682 6.96543C9.73483 4.31747 13.2551 2.8593 17 2.8593C20.7449 2.8593 24.2652 4.31747 26.9132 6.96543C29.5613 9.6135 31.0194 13.1338 31.0194 16.8787V18.6867H30.2213V18.2877C30.2213 17.4717 29.5577 16.808 28.7417 16.808H27.3327C26.5167 16.808 25.853 17.4717 25.853 18.2877V26.7417C25.853 27.5577 26.5167 28.2213 27.3327 28.2213H28.7417C29.5577 28.2213 30.2213 27.5577 30.2213 26.7417V26.3414C31.2637 26.3041 32.1 25.4446 32.1 24.3933V16.8787C32.1 12.8455 30.5292 9.05325 27.6773 6.20135C24.8254 3.34944 21.0332 1.77867 17 1.77867C12.9668 1.77867 9.17458 3.34944 6.32267 6.20134ZM4.8593 18.2877C4.8593 18.0677 5.03838 17.8887 5.25832 17.8887H6.66732C6.88726 17.8887 7.06634 18.0677 7.06634 18.2877V26.7417C7.06634 26.9616 6.88726 27.1407 6.66732 27.1407H5.25832C5.03838 27.1407 4.8593 26.9616 4.8593 26.7417V18.2877ZM3.77867 19.7673V25.2592C3.33266 25.2231 2.98063 24.8485 2.98063 24.3933V19.7673H3.77867ZM29.1407 26.7417C29.1407 26.9616 28.9616 27.1407 28.7417 27.1407H27.3327C27.1127 27.1407 26.9337 26.9616 26.9337 26.7417V18.2877C26.9337 18.0677 27.1127 17.8887 27.3327 17.8887H28.7417C28.9616 17.8887 29.1407 18.0677 29.1407 18.2877V26.7417ZM30.2213 25.2592V19.7673H31.0194V24.3933C31.0194 24.8485 30.6673 25.2231 30.2213 25.2592Z" fill="#333333" stroke="#333333" stroke-width="0.2"/>
<rect x="27" y="17" width="3" height="11" rx="1.5" fill="#333333"/>
<rect x="4" y="17" width="3" height="11" rx="1.5" fill="#333333"/>
<rect x="5" y="18" width="2" height="9" fill="#333333"/>
</svg>
