<svg width="30" height="30" viewBox="0 0 30 30" fill="none" xmlns="http://www.w3.org/2000/svg">
<path d="M23.793 9.75892C23.3828 9.75892 23.0488 10.0929 23.0488 10.5031C23.0488 10.9132 23.3828 11.2472 23.793 11.2472C24.2031 11.2472 24.5371 10.9132 24.5371 10.5031C24.5371 10.0929 24.2031 9.75892 23.793 9.75892ZM23.793 10.5382C23.7695 10.5382 23.752 10.5206 23.752 10.4972C23.752 10.4738 23.7695 10.4562 23.793 10.4562C23.8164 10.4562 23.834 10.4738 23.834 10.4972C23.834 10.5206 23.8164 10.5382 23.793 10.5382Z" fill="#333333"/>
<path d="M18.2377 9.09095C18.0561 9.01478 17.851 9.09681 17.7748 9.27845C17.6986 9.45423 17.6342 9.64173 17.5815 9.82923C17.5287 10.0167 17.6401 10.2101 17.8276 10.2628C17.8569 10.2687 17.892 10.2745 17.9213 10.2745C18.0736 10.2745 18.2201 10.1691 18.2611 10.0167C18.3022 9.85853 18.3549 9.70618 18.4194 9.5597C18.4955 9.3722 18.4135 9.16712 18.2377 9.09095Z" fill="#333333"/>
<path d="M20.1361 6.95814C19.5326 7.19837 18.9818 7.58509 18.5423 8.07728C18.4134 8.22376 18.4251 8.44642 18.5716 8.57533C18.6361 8.63392 18.724 8.66322 18.806 8.66322C18.8997 8.66322 18.9994 8.6222 19.0697 8.54603C19.4388 8.13587 19.8958 7.81361 20.3997 7.61439C20.5814 7.54408 20.6693 7.339 20.599 7.15736C20.5169 6.96986 20.3119 6.88197 20.1361 6.95814Z" fill="#333333"/>
<path d="M5.10254 9.75892C4.69238 9.75892 4.3584 10.0929 4.3584 10.5031C4.3584 10.9132 4.69824 11.2413 5.10254 11.2413C5.50684 11.2413 5.84668 10.9074 5.84668 10.4972C5.84668 10.087 5.5127 9.75892 5.10254 9.75892ZM5.10254 10.5382C5.0791 10.5382 5.06152 10.5206 5.06152 10.4972C5.06152 10.4738 5.0791 10.4562 5.10254 10.4562C5.12598 10.4562 5.14355 10.4738 5.14355 10.4972C5.14355 10.5206 5.12598 10.5382 5.10254 10.5382Z" fill="#333333"/>
<path d="M10.6633 9.09095C10.4875 9.16712 10.3996 9.3722 10.4758 9.55384C10.5403 9.70032 10.593 9.85853 10.634 10.0109C10.675 10.1691 10.8156 10.2687 10.9739 10.2687C11.0031 10.2687 11.0383 10.2628 11.0676 10.257C11.2551 10.2042 11.3664 10.0109 11.3137 9.82337C11.261 9.63587 11.1965 9.45423 11.1203 9.27259C11.05 9.09681 10.8449 9.01478 10.6633 9.09095Z" fill="#333333"/>
<path d="M8.76443 6.95814C8.58279 6.88783 8.37771 6.97572 8.3074 7.15736C8.23709 7.339 8.32498 7.54408 8.50662 7.61439C9.01053 7.81361 9.46756 8.13587 9.8367 8.54603C9.90701 8.6222 10.0008 8.66322 10.1004 8.66322C10.1824 8.66322 10.2703 8.63392 10.3347 8.57533C10.4812 8.44642 10.4929 8.22376 10.364 8.07728C9.91873 7.57923 9.36795 7.19837 8.76443 6.95814Z" fill="#333333"/>
<path d="M7.58691 5.31165C5.72949 5.35267 4.02441 6.38978 3.13379 8.02455C3.0459 8.18861 2.99902 8.37611 2.99902 8.56947V12.4425C2.99902 12.63 3.0459 12.8175 3.13965 12.9874C4.03027 14.6105 5.71777 15.6535 7.55762 15.7062C8.07324 15.7179 8.58301 15.6593 9.07519 15.5245V27.2023C9.07519 28.257 9.93652 29.1183 10.9912 29.1183C12.0459 29.1183 12.9072 28.257 12.9072 27.2023V10.5792C12.9072 9.14369 12.3389 7.79603 11.3135 6.78822C10.2998 5.80384 8.98144 5.28236 7.58691 5.31165ZM12.1924 26.0128H11.3545C11.1611 26.0128 11.0029 26.171 11.0029 26.3644C11.0029 26.5577 11.1611 26.716 11.3545 26.716H12.1924V27.1671C12.1924 27.8234 11.6826 28.38 11.0264 28.4093C10.335 28.4327 9.7666 27.882 9.7666 27.1964V26.716H9.83105C10.0244 26.716 10.1826 26.5577 10.1826 26.3644C10.1826 26.171 10.0244 26.0128 9.83105 26.0128H9.7666V13.9132C9.7666 13.298 9.27441 12.7941 8.65918 12.7824C8.46582 12.7765 8.2959 12.9171 8.28418 13.1046C8.2666 13.3156 8.43652 13.4855 8.6416 13.4855C8.87598 13.4796 9.06348 13.6788 9.06348 13.9132V14.7863C8.58301 14.9386 8.0791 15.0089 7.56934 14.9972C5.9873 14.9503 4.52246 14.048 3.75488 12.6417C3.71973 12.5773 3.70215 12.507 3.70215 12.4367V8.56361C3.70215 8.49329 3.71973 8.42298 3.75488 8.35853C4.52246 6.94642 5.99902 6.04408 7.60449 6.01478C8.80566 5.99134 9.94238 6.44251 10.8096 7.29212C11.7002 8.16517 12.1924 9.33119 12.1924 10.5792V26.0128Z" fill="#333333"/>
<path d="M21.3086 5.31166C19.9141 5.28236 18.5957 5.8097 17.5937 6.78822C16.5684 7.79603 16 9.13783 16 10.5792V27.2023C16 28.257 16.8613 29.1183 17.916 29.1183C18.9707 29.1183 19.832 28.257 19.832 27.2023V15.5187C20.3242 15.6535 20.8281 15.712 21.3496 15.7003C23.1836 15.6476 24.877 14.6046 25.7676 12.9816C25.8555 12.8175 25.9023 12.63 25.9023 12.4367V8.56361C25.9023 8.37611 25.8555 8.18861 25.7676 8.02455C24.877 6.38978 23.166 5.34681 21.3086 5.31166ZM25.1992 12.4367C25.1992 12.507 25.1816 12.5831 25.1465 12.6417C24.3789 14.048 22.9141 14.9503 21.3262 14.9972C20.8164 15.0148 20.3125 14.9386 19.832 14.7863V13.9132C19.832 13.6788 20.0195 13.4796 20.2539 13.4855C20.459 13.4913 20.6289 13.3156 20.6113 13.1046C20.5937 12.9171 20.4238 12.7765 20.2363 12.7824C19.6211 12.7941 19.1289 13.298 19.1289 13.9132V26.0128H19.0645C18.8711 26.0128 18.7129 26.171 18.7129 26.3644C18.7129 26.5577 18.8711 26.716 19.0645 26.716H19.1289V27.1671C19.1289 27.8234 18.6191 28.38 17.9629 28.4093C17.2715 28.4327 16.7031 27.882 16.7031 27.1964V26.716H17.541C17.7344 26.716 17.8926 26.5577 17.8926 26.3644C17.8926 26.171 17.7344 26.0128 17.541 26.0128H16.7031V10.5792C16.7031 9.33119 17.1953 8.16517 18.0859 7.29212C18.9297 6.46595 20.0312 6.01478 21.1973 6.01478H21.291C22.8965 6.04994 24.373 6.94642 25.1406 8.35853C25.1758 8.42298 25.1934 8.4933 25.1934 8.56361L25.1992 12.4367Z" fill="#333333"/>
</svg>
