<svg width="30" height="35" viewBox="0 0 30 35" fill="none" xmlns="http://www.w3.org/2000/svg">
<g clip-path="url(#clip0)">
<path fill-rule="evenodd" clip-rule="evenodd" d="M28.1567 21.3274C28.1479 21.172 28.1333 20.9518 28.1113 20.7906C28.0739 20.5172 27.9802 20.0761 27.9802 20.0761L26.6758 15.0392C26.5866 14.4398 26.2812 13.8919 25.8152 13.4953C25.3493 13.0987 24.7538 12.8797 24.1372 12.8783H6.57853C5.95959 12.8793 5.36131 13.0972 4.89137 13.493C4.42143 13.8887 4.1107 14.4362 4.01511 15.037L2.73706 20.0739C2.73706 20.0739 2.6228 20.5704 2.6001 20.7676C2.58545 20.8949 2.5708 21.1698 2.56201 21.3475L2.53125 21.318V28.0042C2.53358 28.7654 2.84347 29.4946 3.39282 30.0315C3.94217 30.5684 4.68602 30.869 5.46088 30.8673H25.2359C26.0102 30.8673 26.753 30.5661 27.302 30.0296C27.851 29.4931 28.1614 28.7649 28.1655 28.0042V21.318L28.1567 21.3274ZM3.32811 20.8496C3.34056 20.7402 3.40794 20.4229 3.44822 20.2488L4.7292 15.2119L4.73799 15.1766L4.74312 15.1406C4.81116 14.7105 5.03361 14.3186 5.37026 14.0356C5.7069 13.7526 6.1355 13.5974 6.57853 13.5979H24.1372C24.5768 13.6001 25.0009 13.7568 25.333 14.0396C25.6651 14.3225 25.8832 14.7128 25.9478 15.1399L25.9536 15.1773L25.9631 15.214L27.2602 20.2229C27.2851 20.338 27.3547 20.6827 27.3825 20.8856C27.4104 21.0885 27.4331 21.4245 27.4331 21.513C27.4331 22.0855 27.2016 22.6346 26.7895 23.0394C26.3775 23.4443 25.8186 23.6717 25.2359 23.6717H5.48138C4.90381 23.6718 4.34944 23.4484 3.93824 23.0499C3.52703 22.6514 3.29206 22.1099 3.28416 21.5425C3.29369 21.3403 3.31273 20.9734 3.32738 20.8496H3.32811ZM27.4331 28.0042C27.4318 28.2871 27.3738 28.567 27.2624 28.8278C27.151 29.0887 26.9883 29.3255 26.7837 29.5245C26.5791 29.7236 26.3366 29.8811 26.07 29.988C25.8034 30.095 25.518 30.1492 25.23 30.1477H5.46088C5.17317 30.1493 4.88797 30.0951 4.62165 29.9881C4.35534 29.8812 4.11315 29.7236 3.90899 29.5244C3.70484 29.3252 3.54273 29.0884 3.43199 28.8275C3.32124 28.5666 3.26404 28.2868 3.26366 28.0042V23.3666C3.53518 23.6856 3.8743 23.9426 4.25734 24.1196C4.64037 24.2965 5.05811 24.3893 5.48138 24.3913H25.2359C25.6535 24.3897 26.0659 24.2999 26.445 24.1278C26.8242 23.9557 27.1612 23.7054 27.4331 23.394V28.0042ZM10.3409 17.9872C10.6604 17.7542 11.0514 17.6356 11.449 17.6512C11.6354 17.6561 11.8208 17.6802 12.002 17.7231C12.1022 17.7472 12.2044 17.7624 12.3074 17.7685C12.4061 17.7623 12.5042 17.7479 12.6004 17.7253C12.8318 17.6725 13.0688 17.6466 13.3064 17.6483C13.6548 17.6369 13.9984 17.73 14.2915 17.9152L14.312 17.9304L14.2827 17.9419L14.2703 17.9462C14.1077 17.9994 13.7297 18.1527 13.7349 18.424C13.74 18.7571 14.2476 18.9003 14.4006 18.9363C14.4075 18.9373 14.4141 18.9393 14.4204 18.942L14.4373 18.9507L14.4277 18.9651C14.332 19.1101 14.2095 19.2362 14.0667 19.3371C13.8377 19.5396 13.5433 19.6561 13.2354 19.6659C13.0949 19.6658 12.955 19.6489 12.8186 19.6156C12.6749 19.5803 12.5273 19.5622 12.3792 19.5616C12.223 19.5614 12.0674 19.5795 11.9156 19.6156C11.7891 19.6458 11.6597 19.6629 11.5296 19.6666H11.5091C11.1979 19.6498 10.9018 19.5292 10.6698 19.3249C10.1754 18.9665 9.89267 18.3758 10.3409 17.9872ZM17.4079 18.0009H16.6616V19.0896C16.6616 19.2522 16.7934 19.322 17.101 19.3227C17.1743 19.3227 17.3134 19.3177 17.3588 19.3141H17.4035V19.6508L17.3749 19.6544C17.2288 19.6674 17.0822 19.6729 16.9355 19.671C16.1613 19.671 15.8457 19.5119 15.8457 19.1248V18.0023H15.2751V17.6641H15.8471V17.1957H16.6645V17.662H17.4108L17.4079 18.0009ZM19.9713 19.6602H19.1364L17.6921 17.6641H18.56L19.556 19.2119L20.5521 17.667H21.4046L19.9713 19.6602ZM12.5103 17.2137C12.7559 17.0842 13.0292 17.0137 13.3079 17.0079H13.3445L13.3482 17.0266C13.3782 17.1705 13.2749 17.3302 13.0706 17.4583C12.8427 17.584 12.5856 17.6497 12.3243 17.649H12.2613H12.2298L12.2254 17.6332C12.1822 17.4734 12.3521 17.3094 12.5096 17.218L12.5103 17.2137Z" fill="#333333"/>
<g opacity="0.5">
<path d="M15.3481 9.41864C14.9258 9.41864 14.5835 9.76097 14.5835 10.1832C14.5835 10.6055 14.9258 10.9478 15.3481 10.9478C15.7703 10.9478 16.1126 10.6055 16.1126 10.1832C16.1126 9.76097 15.7703 9.41864 15.3481 9.41864Z" fill="#1D1D1F"/>
<path d="M16.7659 8.10206C16.9178 7.80301 16.7984 7.43733 16.4994 7.28546C16.152 7.10902 15.7615 7.01582 15.37 7.01582C14.9545 7.01582 14.5429 7.12013 14.1795 7.31747C13.8847 7.47761 13.7755 7.84637 13.9355 8.14121C14.0456 8.3439 14.2544 8.45882 14.4699 8.45882C14.5678 8.45882 14.6671 8.43507 14.7592 8.38507C14.9479 8.28263 15.1533 8.23068 15.3699 8.23068C15.574 8.23068 15.769 8.27712 15.9492 8.36862C16.2485 8.52049 16.614 8.4012 16.7659 8.10206Z" fill="#1D1D1F"/>
<path d="M18.1539 6.6192C18.3593 6.6192 18.5599 6.5149 18.6741 6.32631C18.8478 6.03933 18.7561 5.66588 18.4691 5.49204C17.5399 4.92935 16.4718 4.63191 15.3802 4.63191C14.2886 4.63191 13.2205 4.92935 12.2914 5.49196C12.0044 5.6658 11.9127 6.03925 12.0865 6.32623C12.2602 6.6132 12.6337 6.70487 12.9207 6.53119C13.66 6.08342 14.5104 5.84677 15.3802 5.84677C16.25 5.84677 17.1004 6.08342 17.8399 6.53127C17.9383 6.59084 18.0468 6.6192 18.1539 6.6192Z" fill="#1D1D1F"/>
<path d="M10.699 4.9517C11.9813 3.84342 13.6222 3.23307 15.3195 3.23307C17.0425 3.23307 18.7023 3.85987 19.9931 4.99806C20.1086 5.09993 20.2518 5.14986 20.3946 5.14986C20.5629 5.14986 20.7304 5.08032 20.8504 4.94416C21.0723 4.69252 21.0482 4.3087 20.7965 4.0868C19.2836 2.75281 17.3385 2.01822 15.3195 2.01822C13.3305 2.01822 11.4075 2.7336 9.90458 4.0325C9.65075 4.25188 9.62287 4.63547 9.84217 4.8893C10.0616 5.14329 10.4452 5.17109 10.699 4.9517Z" fill="#1D1D1F"/>
</g>
</g>
<defs>
<clipPath id="clip0">
<rect width="30" height="35" fill="white"/>
</clipPath>
</defs>
</svg>
