<svg width="16" height="16" viewBox="0 0 16 16" fill="none" xmlns="http://www.w3.org/2000/svg">
<path fill-rule="evenodd" clip-rule="evenodd" d="M7.70795 2.65793C6.52496 2.65793 5.56595 3.61694 5.56595 4.79994V5.95793H9.84995V4.79994C9.84995 3.61694 8.89094 2.65793 7.70795 2.65793ZM10.75 5.95793V4.79994C10.75 3.11989 9.388 1.75793 7.70795 1.75793C6.0279 1.75793 4.66595 3.11989 4.66595 4.79994V5.95793H3.74795C3.00237 5.95793 2.39795 6.56235 2.39795 7.30793V13.3079C2.39795 14.0535 3.00236 14.6579 3.74795 14.6579H11.6679C12.4135 14.6579 13.018 14.0535 13.018 13.3079V7.30793C13.018 6.56235 12.4135 5.95793 11.6679 5.95793H10.75ZM3.74795 6.85793C3.49942 6.85793 3.29795 7.05941 3.29795 7.30793V13.3079C3.29795 13.5565 3.49942 13.7579 3.74795 13.7579H11.6679C11.9165 13.7579 12.1179 13.5565 12.1179 13.3079V7.30793C12.1179 7.05941 11.9165 6.85793 11.6679 6.85793H10.2999H5.11595H3.74795ZM5.76395 8.20794C5.76395 8.53931 5.47383 8.80794 5.11595 8.80794C4.75807 8.80794 4.46795 8.53931 4.46795 8.20794C4.46795 7.87656 4.75807 7.60793 5.11595 7.60793C5.47383 7.60793 5.76395 7.87656 5.76395 8.20794ZM10.2999 8.80794C10.6578 8.80794 10.9479 8.53931 10.9479 8.20794C10.9479 7.87656 10.6578 7.60793 10.2999 7.60793C9.94203 7.60793 9.65191 7.87656 9.65191 8.20794C9.65191 8.53931 9.94203 8.80794 10.2999 8.80794Z" fill="#5E8BCE"/>
</svg>
