<svg width="12" height="13" viewBox="0 0 12 13" fill="none" xmlns="http://www.w3.org/2000/svg">
<path fill-rule="evenodd" clip-rule="evenodd" d="M5.75 1.98877C4.92157 1.98877 4.25 2.66034 4.25 3.48877V4.48877H7.25V3.48877C7.25 2.66034 6.57843 1.98877 5.75 1.98877ZM8.25 4.48877V3.48877C8.25 2.10806 7.13071 0.98877 5.75 0.98877C4.36929 0.98877 3.25 2.10806 3.25 3.48877V4.48877H3C2.17157 4.48877 1.5 5.16034 1.5 5.98877V10.4888C1.5 11.3172 2.17157 11.9888 3 11.9888H8.5C9.32843 11.9888 10 11.3172 10 10.4888V5.98877C10 5.16034 9.32843 4.48877 8.5 4.48877H8.25ZM3 5.48877C2.72386 5.48877 2.5 5.71263 2.5 5.98877V10.4888C2.5 10.7649 2.72386 10.9888 3 10.9888H8.5C8.77614 10.9888 9 10.7649 9 10.4888V5.98877C9 5.71263 8.77614 5.48877 8.5 5.48877H7.75H3.75H3ZM4.25 6.48877C4.25 6.76491 4.02614 6.98877 3.75 6.98877C3.47386 6.98877 3.25 6.76491 3.25 6.48877C3.25 6.21263 3.47386 5.98877 3.75 5.98877C4.02614 5.98877 4.25 6.21263 4.25 6.48877ZM7.75 6.98877C8.02614 6.98877 8.25 6.76491 8.25 6.48877C8.25 6.21263 8.02614 5.98877 7.75 5.98877C7.47386 5.98877 7.25 6.21263 7.25 6.48877C7.25 6.76491 7.47386 6.98877 7.75 6.98877Z" fill="#5E8BCE"/>
</svg>
