<svg width="42" height="32" viewBox="0 0 42 32" fill="none" xmlns="http://www.w3.org/2000/svg">
<path fill-rule="evenodd" clip-rule="evenodd" d="M28.0085 2.40741H37.8433C38.3755 2.40907 38.8854 2.62121 39.2617 2.99753C39.638 3.37384 39.8502 3.88375 39.8519 4.41593V28.1026C39.8502 28.6348 39.638 29.1447 39.2617 29.521C38.8854 29.8973 38.3755 30.1095 37.8433 30.1111H28.0085C27.4763 30.1095 26.9664 29.8973 26.5901 29.521C26.2138 29.1447 26.0017 28.6348 26 28.1026V28H26.6296V28.1026C26.6296 28.4683 26.7749 28.819 27.0335 29.0776C27.2921 29.3362 27.6428 29.4815 28.0085 29.4815H37.8433C38.209 29.4815 38.5598 29.3362 38.8184 29.0776C39.0769 28.819 39.2222 28.4683 39.2222 28.1026V4.41593C39.2222 4.23485 39.1866 4.05554 39.1173 3.88825C39.048 3.72096 38.9464 3.56895 38.8184 3.44091C38.6903 3.31287 38.5383 3.2113 38.371 3.142C38.2037 3.07271 38.0244 3.03704 37.8433 3.03704H36.3889C36.3054 3.03704 36.2253 3.07021 36.1663 3.12925C36.1072 3.18829 36.0741 3.26836 36.0741 3.35185V3.66667C36.0741 3.83366 36.0077 3.99381 35.8897 4.11188C35.7716 4.22996 35.6114 4.2963 35.4444 4.2963H30.4074C30.2404 4.2963 30.0803 4.22996 29.9622 4.11188C29.8441 3.99381 29.7778 3.83366 29.7778 3.66667V3.35185C29.7778 3.26836 29.7446 3.18829 29.6856 3.12925C29.6265 3.07021 29.5465 3.03704 29.463 3.03704H28.0085C27.6428 3.03704 27.2921 3.18231 27.0335 3.44091C26.7749 3.6995 26.6296 4.05022 26.6296 4.41593V10H26V4.41593C26.0017 3.88375 26.2138 3.37384 26.5901 2.99753C26.9664 2.62121 27.4763 2.40907 28.0085 2.40741ZM34.351 3.1665C34.3168 3.14367 34.2766 3.13148 34.2356 3.13148C34.1804 3.13148 34.1276 3.15337 34.0886 3.19234C34.0497 3.23131 34.0278 3.28416 34.0278 3.33926C34.0278 3.38036 34.04 3.42053 34.0628 3.4547C34.0856 3.48887 34.1181 3.5155 34.156 3.53122C34.194 3.54695 34.2358 3.55106 34.2761 3.54305C34.3164 3.53503 34.3534 3.51524 34.3825 3.48618C34.4115 3.45712 34.4313 3.4201 34.4393 3.3798C34.4474 3.33949 34.4432 3.29772 34.4275 3.25975C34.4118 3.22178 34.3852 3.18933 34.351 3.1665ZM33.5556 3.17556H32.2963C32.2545 3.17556 32.2145 3.19214 32.185 3.22166C32.1555 3.25118 32.1389 3.29122 32.1389 3.33297C32.1389 3.37471 32.1555 3.41475 32.185 3.44427C32.2145 3.47379 32.2545 3.49037 32.2963 3.49037H33.5556C33.5973 3.49037 33.6373 3.47379 33.6669 3.44427C33.6964 3.41475 33.713 3.37471 33.713 3.33297C33.713 3.29122 33.6964 3.25118 33.6669 3.22166C33.6373 3.19214 33.5973 3.17556 33.5556 3.17556Z" fill="#1D1D1F"/>
<path d="M31.3333 26.6667V11C31.3333 10.3613 30.9853 10 30.3333 10H4.33333C3.68133 10 3.33333 10.336 3.33333 11V26.6667H0C0.0353333 26.728 0.0846667 26.882 0.140667 26.882C0.140667 26.882 1.52133 27.714 3.23333 27.83C4.944 27.946 8.29333 28.006 8.29733 27.998C8.29867 27.996 16.9107 28 16.9107 28L25.5567 27.998C25.5567 27.998 29.572 27.944 31.2833 27.83C32.9953 27.716 34.376 26.882 34.376 26.882C34.432 26.882 34.6313 26.728 34.6667 26.6667H31.3333ZM4.66667 11.3333H30V26.6667H4.66667V11.3333Z" fill="#333333"/>
</svg>
