<svg width="44" height="44" viewBox="0 0 44 44" fill="none" xmlns="http://www.w3.org/2000/svg">
<path d="M22.0548 14.0205L11.948 11.3132C11.5363 11.2012 11.1184 11.4473 11.0087 11.8553C10.8991 12.264 11.1421 12.6848 11.5508 12.7944L21.6576 15.5017C21.7243 15.5194 21.791 15.5278 21.8562 15.5278C22.1951 15.5278 22.5048 15.3016 22.596 14.9596C22.7072 14.5503 22.4642 14.1293 22.0548 14.0205Z" fill="#E0E0E0"/>
<path d="M24.3145 15.1466C24.3428 15.1067 24.3666 15.0631 24.4026 15.0293C24.3674 15.0638 24.3436 15.1067 24.3145 15.1466Z" fill="#E0E0E0"/>
<path d="M24.2361 15.2681C24.2185 15.3072 24.2139 15.3509 24.2031 15.3938C24.2139 15.3516 24.2185 15.308 24.2361 15.2681Z" fill="#E0E0E0"/>
<path d="M24.6539 14.8716C24.5987 14.8922 24.5534 14.9268 24.5059 14.959C24.5534 14.9275 24.5987 14.893 24.6539 14.8716Z" fill="#E0E0E0"/>
<path d="M24.2003 37.5962C24.0638 37.1953 24.2777 36.7598 24.6787 36.6233L25.693 36.2775V16.1291L25.1779 16.3077C24.7761 16.4472 24.3406 16.2349 24.2026 15.8347C24.1711 15.7435 24.1619 15.6507 24.165 15.5595C24.165 15.5678 24.1604 15.5756 24.1604 15.584V36.3627L8.17599 32.2837V11.4468L7.80181 11.5695L6.64258 12.6122V32.8788C6.64258 33.2292 6.88027 33.5343 7.21993 33.6217L24.7378 38.0917C24.8007 38.1078 24.8643 38.1155 24.9272 38.1155C24.6066 38.1161 24.3084 37.9151 24.2003 37.5962Z" fill="#E0E0E0"/>
<path d="M24.9336 38.1151C25.0187 38.1151 25.1022 38.1014 25.182 38.0737H25.1813C25.0992 38.1021 25.0157 38.1151 24.9336 38.1151Z" fill="#E0E0E0"/>
<path d="M6.98438 10.2728C7.03654 10.2368 7.0886 10.2 7.1485 10.1777C7.08709 10.1999 7.03654 10.236 6.98438 10.2728Z" fill="#E0E0E0"/>
<path d="M39.1271 10.5101C39.1179 10.494 39.1018 10.4848 39.0919 10.4702C39.167 10.5822 39.2198 10.7102 39.2276 10.852C39.2452 11.1924 39.0352 11.5045 38.7131 11.6157L38.112 11.8242L42.1089 18.8044L31.1495 22.6004L28.0864 18.1834C27.8449 17.8368 27.3665 17.7486 27.0192 17.9909C26.6711 18.2317 26.5852 18.7102 26.826 19.0582L30.2202 23.9529C30.3667 24.1629 30.6043 24.2825 30.8505 24.2825C30.934 24.2825 31.0191 24.2695 31.1012 24.2404L37.2709 22.1028V21.0256C37.2709 20.6016 37.6145 20.2588 38.0377 20.2588C38.4609 20.2588 38.8044 20.6015 38.8044 21.0256V21.5715L43.4845 19.9507C43.6999 19.8755 43.8717 19.7091 43.9514 19.4945C44.0311 19.2814 44.0119 19.0429 43.8985 18.8444L39.1271 10.5101Z" fill="#E0E0E0"/>
<path d="M38.8984 10.2666C38.9245 10.285 38.946 10.3073 38.969 10.3279C38.9452 10.3072 38.9237 10.2841 38.8984 10.2666Z" fill="#E0E0E0"/>
<path d="M38.6484 10.1509C38.6715 10.157 38.6914 10.17 38.7136 10.1778C38.6906 10.17 38.6715 10.157 38.6484 10.1509Z" fill="#E0E0E0"/>
<path d="M37.2672 32.3304L25.6921 36.2774V37.3486C25.6921 37.5855 25.5825 37.8093 25.3954 37.9543C25.328 38.0065 25.2528 38.0463 25.1738 38.0739L38.2808 33.6039C38.5913 33.4981 38.7998 33.206 38.7998 32.8786V21.5718L37.2664 22.1031V32.3303H37.2672V32.3304Z" fill="#E0E0E0"/>
<path d="M25.6941 37.349V36.2778L24.6797 36.6236C24.2788 36.7601 24.0648 37.1956 24.2013 37.5966C24.3102 37.9156 24.6077 38.1164 24.9267 38.1164C25.0087 38.1164 25.0923 38.1034 25.1744 38.075H25.1751C25.2541 38.0482 25.3292 38.0083 25.3967 37.9554C25.5845 37.809 25.6941 37.5851 25.6941 37.349Z" fill="#E0E0E0"/>
<path d="M38.0382 20.2593C37.615 20.2593 37.2715 20.602 37.2715 21.026V22.1033L38.8049 21.572V21.026C38.805 20.602 38.4615 20.2593 38.0382 20.2593Z" fill="#E0E0E0"/>
<path d="M38.9727 10.3291C39.0187 10.3705 39.0609 10.4173 39.0969 10.471C39.0609 10.4173 39.0202 10.3713 38.9727 10.3291Z" fill="#E0E0E0"/>
<path d="M6.98289 10.2739C6.95601 10.2923 6.92385 10.3007 6.90008 10.3222L0.254265 16.3002C-0.0194608 16.5456 -0.0800162 16.9527 0.110894 17.267C0.25351 17.5024 0.504975 17.6366 0.767193 17.6366C0.85614 17.6366 0.946596 17.6205 1.03479 17.5891L5.09917 16.0755C5.49636 15.9276 5.69793 15.4867 5.55003 15.0896C5.40204 14.6916 4.96042 14.4923 4.56407 14.638L4.27658 14.7453L6.64729 12.613V10.8917C6.6455 10.6312 6.78434 10.4119 6.98289 10.2739Z" fill="#E0E0E0"/>
<path d="M38.7207 10.1772C38.7844 10.1995 38.8457 10.227 38.9016 10.2662C38.8464 10.2278 38.785 10.2002 38.7207 10.1772Z" fill="#E0E0E0"/>
<path d="M8.18323 10.8913V11.4471L20.3785 7.44487L35.7127 11.0346L24.6829 14.8598C24.6752 14.8621 24.6699 14.8691 24.6622 14.8721C24.7473 14.8399 24.8378 14.8176 24.9337 14.8176C25.3569 14.8176 25.7004 15.1603 25.7004 15.5844V16.1295L38.1158 11.8244L37.7999 11.2732C37.5898 10.9059 37.7171 10.4367 38.0844 10.2267C38.2645 10.1247 38.4685 10.1048 38.6549 10.1515C38.6495 10.15 38.6456 10.1469 38.6403 10.1453L20.518 5.90307C20.3808 5.87166 20.2374 5.87779 20.1041 5.9207L7.17727 10.1629C7.16727 10.166 7.16039 10.1744 7.15039 10.1783C7.23396 10.1469 7.32215 10.1246 7.41648 10.1246C7.84046 10.1246 8.18323 10.4673 8.18323 10.8913Z" fill="#E0E0E0"/>
<path d="M24.4004 15.0303C24.431 15.0011 24.4709 14.9828 24.5062 14.959C24.4708 14.9828 24.431 15.0011 24.4004 15.0303Z" fill="#E0E0E0"/>
<path d="M24.166 15.5597C24.1675 15.5014 24.1852 15.4485 24.1998 15.394C24.1852 15.4493 24.1683 15.5021 24.166 15.5597Z" fill="#E0E0E0"/>
<path d="M24.3157 15.147C24.2873 15.1869 24.2544 15.2229 24.2344 15.2673C24.2551 15.2229 24.288 15.1869 24.3157 15.147Z" fill="#E0E0E0"/>
<path d="M8.17608 11.4461V10.8903C8.17608 10.4663 7.83256 10.1235 7.40933 10.1235C7.31501 10.1235 7.22682 10.1458 7.14324 10.1772C7.08344 10.1995 7.03128 10.2363 6.97912 10.2723C6.78057 10.411 6.64258 10.6296 6.64258 10.8903V12.6116L7.80181 11.5688L8.17608 11.4461Z" fill="#E0E0E0"/>
<path d="M24.934 14.8169C24.8374 14.8169 24.747 14.8392 24.6626 14.8713C24.6074 14.8928 24.5614 14.9265 24.5146 14.9588C24.4793 14.9825 24.4402 15.0009 24.4087 15.0301C24.3727 15.0646 24.3489 15.1075 24.3206 15.1474C24.2922 15.1873 24.26 15.2233 24.2393 15.2678C24.2216 15.3077 24.217 15.3513 24.2062 15.3935C24.1917 15.4479 24.1748 15.5008 24.1725 15.5591C24.1694 15.6503 24.1779 15.7432 24.21 15.8344C24.3488 16.2346 24.7842 16.447 25.1853 16.3074L25.7005 16.1287V15.5837C25.7006 15.1596 25.3572 14.8169 24.934 14.8169Z" fill="#E0E0E0"/>
<path d="M38.0811 10.2256C37.7138 10.4357 37.5865 10.905 37.7966 11.2722L38.1125 11.8235L38.7136 11.6149C39.0356 11.503 39.2457 11.1917 39.228 10.8513C39.2204 10.7094 39.1675 10.5822 39.0923 10.4695C39.0563 10.4158 39.0149 10.369 38.9681 10.3276C38.9451 10.3061 38.9228 10.2839 38.8975 10.2663C38.8416 10.228 38.7802 10.1996 38.7166 10.1774C38.6944 10.1697 38.6752 10.1567 38.6514 10.1505C38.4652 10.1029 38.2612 10.1228 38.0811 10.2256Z" fill="#E0E0E0"/>
</svg>
