<svg width="100" height="100" viewBox="0 0 100 100" fill="none" xmlns="http://www.w3.org/2000/svg">
<g clip-path="url(#clip0)">
<path d="M50.1235 31.8647L27.1535 25.7118C26.2177 25.4573 25.2681 26.0166 25.0188 26.9438C24.7697 27.8726 25.3219 28.8292 26.2508 29.0783L49.2208 35.2312C49.3723 35.2712 49.5239 35.2903 49.672 35.2903C50.4423 35.2903 51.1462 34.7763 51.3535 33.9992C51.6063 33.0688 51.0539 32.1121 50.1235 31.8647Z" fill="#E0E0E0"/>
<path d="M55.2617 34.4256C55.3262 34.3349 55.3803 34.2357 55.4622 34.1589C55.382 34.2374 55.328 34.3349 55.2617 34.4256Z" fill="#E0E0E0"/>
<path d="M55.0809 34.7009C55.0408 34.7899 55.0303 34.8891 55.0059 34.9867C55.0303 34.8909 55.0408 34.7916 55.0809 34.7009Z" fill="#E0E0E0"/>
<path d="M56.0297 33.7994C55.9043 33.8464 55.8014 33.9248 55.6934 33.9982C55.8014 33.9266 55.9043 33.8481 56.0297 33.7994Z" fill="#E0E0E0"/>
<path d="M55.0015 85.4471C54.6913 84.5358 55.1775 83.546 56.0888 83.2358L58.3942 82.45V36.658L57.2233 37.0641C56.3103 37.3811 55.3205 36.8986 55.0067 35.989C54.9353 35.7817 54.9143 35.5708 54.9214 35.3635C54.9214 35.3825 54.9109 35.4001 54.9109 35.4192V82.6435L18.5827 73.3731V26.0165L17.7323 26.2954L15.0977 28.6652V74.7255C15.0977 75.5219 15.6379 76.2154 16.4098 76.4141L56.2232 86.5732C56.3662 86.6098 56.5107 86.6272 56.6537 86.6272C55.9251 86.6285 55.2472 86.1719 55.0015 85.4471Z" fill="#E0E0E0"/>
<path d="M56.6641 86.6265C56.8574 86.6265 57.0474 86.5952 57.2287 86.5323H57.227C57.0405 86.5969 56.8506 86.6265 56.6641 86.6265Z" fill="#E0E0E0"/>
<path d="M15.873 23.3484C15.9916 23.2665 16.1099 23.1829 16.2461 23.1323C16.1065 23.1827 15.9916 23.2648 15.873 23.3484Z" fill="#E0E0E0"/>
<path d="M88.9276 23.8873C88.9066 23.8507 88.8701 23.8299 88.8474 23.7966C89.0183 24.0511 89.1383 24.342 89.1559 24.6644C89.196 25.4381 88.7186 26.1472 87.9867 26.3999L86.6205 26.8739L95.7043 42.7379L70.7966 51.3652L63.8351 41.3265C63.2861 40.5389 62.1988 40.3385 61.4095 40.8892C60.6185 41.4363 60.4232 42.5238 60.9705 43.3148L68.6846 54.4391C69.0175 54.9165 69.5575 55.1883 70.117 55.1883C70.3069 55.1883 70.5003 55.1587 70.6868 55.0925L84.709 50.2344V47.7861C84.709 46.8225 85.4897 46.0435 86.4516 46.0435C87.4135 46.0435 88.1942 46.8223 88.1942 47.7861V49.0269L98.8307 45.3432C99.3203 45.1723 99.7106 44.7942 99.8918 44.3065C100.073 43.822 100.029 43.2801 99.7715 42.8288L88.9276 23.8873Z" fill="#E0E0E0"/>
<path d="M88.4043 23.3347C88.4635 23.3765 88.5123 23.4271 88.5646 23.4741C88.5106 23.4269 88.4617 23.3746 88.4043 23.3347Z" fill="#E0E0E0"/>
<path d="M87.8379 23.0713C87.8902 23.0852 87.9354 23.1148 87.986 23.1324C87.9337 23.1148 87.8902 23.0852 87.8379 23.0713Z" fill="#E0E0E0"/>
<path d="M84.6997 73.4785L58.3928 82.4491V84.8835C58.3928 85.422 58.1437 85.9307 57.7184 86.2602C57.5651 86.3787 57.3943 86.4692 57.2148 86.532L87.0034 76.3729C87.7091 76.1324 88.183 75.4685 88.183 74.7244V49.0271L84.698 50.2347V73.4783H84.6997V73.4785Z" fill="#E0E0E0"/>
<path d="M58.3983 84.8843V82.45L56.093 83.2358C55.1817 83.546 54.6955 84.5358 55.0057 85.4471C55.2531 86.1721 55.9292 86.6284 56.6542 86.6284C56.8407 86.6284 57.0306 86.5989 57.2171 86.5343H57.2188C57.3983 86.4735 57.5691 86.3828 57.7224 86.2625C58.1492 85.9298 58.3983 85.4211 58.3983 84.8843Z" fill="#E0E0E0"/>
<path d="M86.4555 46.0449C85.4936 46.0449 84.7129 46.8237 84.7129 47.7875V50.2359L88.1979 49.0283V47.7875C88.1981 46.8239 87.4174 46.0449 86.4555 46.0449Z" fill="#E0E0E0"/>
<path d="M88.5703 23.4756C88.6749 23.5697 88.7708 23.676 88.8526 23.798C88.7708 23.676 88.6784 23.5714 88.5703 23.4756Z" fill="#E0E0E0"/>
<path d="M15.8702 23.3502C15.8091 23.392 15.736 23.4111 15.682 23.46L0.577874 37.0464C-0.044229 37.6039 -0.181855 38.5292 0.252031 39.2437C0.576159 39.7785 1.14767 40.0836 1.74362 40.0836C1.94577 40.0836 2.15135 40.0469 2.35179 39.9755L11.589 36.5357C12.4917 36.1994 12.9498 35.1974 12.6137 34.2949C12.2774 33.3905 11.2737 32.9375 10.3729 33.2685L9.71949 33.5125L15.1075 28.6664V24.7543C15.1034 24.1623 15.419 23.6638 15.8702 23.3502Z" fill="#E0E0E0"/>
<path d="M88.0039 23.1305C88.1486 23.1811 88.2879 23.2437 88.4151 23.3326C88.2897 23.2454 88.1501 23.1826 88.0039 23.1305Z" fill="#E0E0E0"/>
<path d="M18.5993 24.7535V26.0168L46.3159 16.9209L81.1663 25.0794L56.0985 33.773C56.0811 33.7781 56.0689 33.794 56.0516 33.8009C56.2449 33.7278 56.4505 33.6772 56.6685 33.6772C57.6304 33.6772 58.4111 34.456 58.4111 35.4198V36.6586L86.6279 26.8743L85.9099 25.6215C85.4325 24.7868 85.7217 23.7205 86.5565 23.2431C86.9659 23.0114 87.4294 22.9661 87.853 23.0722C87.8408 23.0688 87.832 23.0617 87.82 23.0583L46.633 13.4167C46.3211 13.3454 45.9952 13.3593 45.6921 13.4568L16.313 23.0982C16.2903 23.1052 16.2747 23.1243 16.252 23.1331C16.4419 23.0617 16.6423 23.0111 16.8567 23.0111C17.8203 23.0111 18.5993 23.7899 18.5993 24.7535Z" fill="#E0E0E0"/>
<path d="M55.457 34.1601C55.5267 34.0939 55.6174 34.0521 55.6976 33.998C55.6172 34.0521 55.5267 34.0939 55.457 34.1601Z" fill="#E0E0E0"/>
<path d="M54.9238 35.3633C54.9273 35.2308 54.9673 35.1105 55.0006 34.9868C54.9673 35.1124 54.929 35.2325 54.9238 35.3633Z" fill="#E0E0E0"/>
<path d="M55.2629 34.4257C55.1984 34.5163 55.1236 34.5982 55.0781 34.6992C55.1253 34.5982 55.2001 34.5163 55.2629 34.4257Z" fill="#E0E0E0"/>
<path d="M18.5829 26.0147V24.7514C18.5829 23.7878 17.8022 23.0088 16.8403 23.0088C16.6259 23.0088 16.4255 23.0594 16.2355 23.1308C16.0996 23.1814 15.9811 23.265 15.8625 23.3469C15.4113 23.6622 15.0977 24.1589 15.0977 24.7514V28.6635L17.7323 26.2936L18.5829 26.0147Z" fill="#E0E0E0"/>
<path d="M56.6677 33.6755C56.4482 33.6755 56.2426 33.7261 56.0507 33.7992C55.9253 33.8481 55.8207 33.9246 55.7144 33.998C55.6342 34.052 55.5455 34.0938 55.4739 34.16C55.392 34.2385 55.338 34.336 55.2735 34.4267C55.2089 34.5174 55.1358 34.5993 55.0887 34.7002C55.0486 34.7909 55.0381 34.8902 55.0137 34.986C54.9806 35.1097 54.9423 35.2299 54.9369 35.3624C54.9298 35.5697 54.9491 35.7807 55.0222 35.988C55.3376 36.8975 56.3273 37.3803 57.2387 37.063L58.4096 36.657V35.4182C58.41 34.4543 57.6295 33.6755 56.6677 33.6755Z" fill="#E0E0E0"/>
<path d="M86.5466 23.2401C85.7119 23.7175 85.4227 24.784 85.9001 25.6187L86.618 26.8715L87.9842 26.3975C88.7161 26.1431 89.1935 25.4356 89.1534 24.662C89.136 24.3396 89.0158 24.0504 88.8449 23.7942C88.763 23.6722 88.6689 23.5659 88.5626 23.4718C88.5103 23.4229 88.4597 23.3725 88.4022 23.3325C88.2751 23.2454 88.1356 23.1809 87.9911 23.1303C87.9405 23.1129 87.897 23.0834 87.8429 23.0692C87.4196 22.9612 86.9561 23.0064 86.5466 23.2401Z" fill="#E0E0E0"/>
</g>
<defs>
<clipPath id="clip0">
<rect width="100" height="100" fill="white"/>
</clipPath>
</defs>
</svg>
