<svg width="126" height="126" viewBox="0 0 126 126" fill="none" xmlns="http://www.w3.org/2000/svg">
<g clip-path="url(#clip0)">
<path d="M63.1575 40.1497L34.2152 32.3971C33.0362 32.0765 31.8397 32.7812 31.5255 33.9494C31.2117 35.1198 31.9074 36.325 33.0778 36.6389L62.02 44.3915C62.211 44.442 62.402 44.4661 62.5886 44.4661C63.5591 44.4661 64.4461 43.8183 64.7073 42.8392C65.0258 41.6669 64.3297 40.4614 63.1575 40.1497Z" fill="#E0E0E0"/>
<path d="M69.6279 43.3746C69.7092 43.2603 69.7773 43.1353 69.8805 43.0386C69.7795 43.1374 69.7114 43.2603 69.6279 43.3746Z" fill="#E0E0E0"/>
<path d="M69.4022 43.7224C69.3516 43.8345 69.3384 43.9596 69.3076 44.0825C69.3384 43.9617 69.3516 43.8367 69.4022 43.7224Z" fill="#E0E0E0"/>
<path d="M70.5996 42.5872C70.4416 42.6463 70.3119 42.7452 70.1758 42.8376C70.3119 42.7473 70.4416 42.6485 70.5996 42.5872Z" fill="#E0E0E0"/>
<path d="M69.3004 107.662C68.9095 106.514 69.5221 105.267 70.6704 104.876L73.5751 103.886V46.1879L72.0998 46.6995C70.9494 47.099 69.7023 46.491 69.3069 45.3449C69.2169 45.0837 69.1904 44.8179 69.1994 44.5567C69.1994 44.5808 69.1861 44.6029 69.1861 44.627V104.13L23.4126 92.4488V32.7795L22.3411 33.1309L19.0215 36.117V94.1529C19.0215 95.1564 19.7022 96.0302 20.6748 96.2806L70.8397 109.081C71.0199 109.127 71.2019 109.149 71.3821 109.149C70.464 109.151 69.6099 108.575 69.3004 107.662Z" fill="#E0E0E0"/>
<path d="M71.4004 109.148C71.644 109.148 71.8833 109.109 72.1119 109.03H72.1097C71.8747 109.111 71.6354 109.148 71.4004 109.148Z" fill="#E0E0E0"/>
<path d="M20.002 29.4178C20.1513 29.3146 20.3004 29.2093 20.4719 29.1455C20.2961 29.209 20.1513 29.3124 20.002 29.4178Z" fill="#E0E0E0"/>
<path d="M112.047 30.0974C112.02 30.0512 111.974 30.025 111.946 29.9832C112.161 30.3038 112.312 30.6703 112.334 31.0765C112.385 32.0514 111.783 32.9449 110.861 33.2633L109.14 33.8605L120.585 53.8492L89.2016 64.7196L80.4301 52.0708C79.7384 51.0784 78.3684 50.8259 77.3738 51.5198C76.3771 52.2091 76.1311 53.5793 76.8207 54.576L86.5405 68.5926C86.9599 69.1942 87.6403 69.5367 88.3453 69.5367C88.5846 69.5367 88.8283 69.4994 89.0633 69.4159L106.731 63.2948V60.2099C106.731 58.9958 107.715 58.0142 108.927 58.0142C110.139 58.0142 111.123 58.9955 111.123 60.2099V61.7733L124.525 57.1318C125.141 56.9165 125.633 56.44 125.862 55.8255C126.09 55.2151 126.035 54.5323 125.71 53.9637L112.047 30.0974Z" fill="#E0E0E0"/>
<path d="M111.39 29.4004C111.464 29.4531 111.526 29.5168 111.592 29.576C111.524 29.5165 111.462 29.4506 111.39 29.4004Z" fill="#E0E0E0"/>
<path d="M110.674 29.0681C110.74 29.0857 110.797 29.1229 110.86 29.1451C110.795 29.1229 110.74 29.0857 110.674 29.0681Z" fill="#E0E0E0"/>
<path d="M106.72 92.5827L73.5731 103.886V106.953C73.5731 107.631 73.2592 108.272 72.7233 108.688C72.5302 108.837 72.3149 108.951 72.0889 109.03L109.622 96.2297C110.512 95.9266 111.109 95.0901 111.109 94.1525V61.7739L106.718 63.2954V92.5824H106.72V92.5827Z" fill="#E0E0E0"/>
<path d="M73.5781 106.954V103.887L70.6734 104.877C69.5252 105.268 68.9126 106.515 69.3034 107.663C69.6151 108.577 70.4671 109.152 71.3806 109.152C71.6156 109.152 71.8549 109.114 72.0899 109.033H72.092C72.3181 108.956 72.5334 108.842 72.7265 108.691C73.2643 108.271 73.5781 107.63 73.5781 106.954Z" fill="#E0E0E0"/>
<path d="M108.928 58.0151C107.716 58.0151 106.732 58.9964 106.732 60.2108V63.2957L111.124 61.7742V60.2108C111.124 58.9967 110.14 58.0151 108.928 58.0151Z" fill="#E0E0E0"/>
<path d="M111.604 29.5793C111.736 29.6979 111.857 29.8319 111.96 29.9856C111.857 29.8319 111.741 29.7001 111.604 29.5793Z" fill="#E0E0E0"/>
<path d="M19.9965 29.4211C19.9195 29.4738 19.8274 29.4979 19.7593 29.5594L0.728122 46.6783C-0.0557286 47.3808 -0.229137 48.5466 0.317559 49.4469C0.725961 50.1208 1.44607 50.5051 2.19696 50.5051C2.45167 50.5051 2.71071 50.459 2.96326 50.369L14.6022 46.0349C15.7396 45.6111 16.3168 44.3486 15.8933 43.2115C15.4695 42.0719 14.2048 41.5011 13.0698 41.9182L12.2466 42.2256L19.0354 36.1195V31.1903C19.0303 30.4443 19.4279 29.8163 19.9965 29.4211Z" fill="#E0E0E0"/>
<path d="M110.883 29.144C111.065 29.2078 111.241 29.2867 111.401 29.3988C111.243 29.2888 111.067 29.2097 110.883 29.144Z" fill="#E0E0E0"/>
<path d="M23.4333 31.1886V32.7804L58.3562 21.3194L102.268 31.5992L70.6822 42.5531C70.6604 42.5596 70.645 42.5796 70.6231 42.5882C70.8667 42.4961 71.1258 42.4324 71.4005 42.4324C72.6124 42.4324 73.5962 43.4137 73.5962 44.6281V46.189L109.149 33.8608L108.245 32.2823C107.643 31.2305 108.008 29.887 109.059 29.2854C109.575 28.9935 110.159 28.9365 110.693 29.0702C110.678 29.0658 110.666 29.0569 110.651 29.0526L58.7557 16.9043C58.3627 16.8143 57.9521 16.8319 57.5702 16.9548L20.5526 29.1029C20.5239 29.1118 20.5042 29.1358 20.4756 29.1469C20.7149 29.0569 20.9675 28.9932 21.2376 28.9932C22.4517 28.9932 23.4333 29.9745 23.4333 31.1886Z" fill="#E0E0E0"/>
<path d="M69.8721 43.0416C69.9599 42.9581 70.0741 42.9055 70.1751 42.8374C70.0738 42.9055 69.9599 42.9581 69.8721 43.0416Z" fill="#E0E0E0"/>
<path d="M69.2021 44.5576C69.2065 44.3906 69.257 44.2391 69.2989 44.0833C69.257 44.2415 69.2086 44.3928 69.2021 44.5576Z" fill="#E0E0E0"/>
<path d="M69.6313 43.376C69.55 43.4902 69.4557 43.5934 69.3984 43.7206C69.4579 43.5934 69.5521 43.4902 69.6313 43.376Z" fill="#E0E0E0"/>
<path d="M23.4129 32.7779V31.1862C23.4129 29.972 22.4292 28.9905 21.2172 28.9905C20.9471 28.9905 20.6945 29.0542 20.4552 29.1442C20.284 29.2079 20.1346 29.3133 19.9852 29.4164C19.4167 29.8138 19.0215 30.4396 19.0215 31.1862V36.1154L22.3411 33.1293L23.4129 32.7779Z" fill="#E0E0E0"/>
<path d="M71.4032 42.4304C71.1266 42.4304 70.8676 42.4942 70.6258 42.5863C70.4678 42.6479 70.336 42.7443 70.2021 42.8367C70.1011 42.9047 69.9892 42.9574 69.899 43.0409C69.7958 43.1397 69.7278 43.2626 69.6465 43.3769C69.5652 43.4911 69.4731 43.5943 69.4137 43.7215C69.3631 43.8358 69.3499 43.9609 69.3191 44.0816C69.2775 44.2374 69.2292 44.389 69.2224 44.5559C69.2135 44.8171 69.2378 45.0829 69.3299 45.3441C69.7272 46.4901 70.9743 47.0984 72.1227 46.6987L73.598 46.1871V44.6261C73.5985 43.4117 72.6151 42.4304 71.4032 42.4304Z" fill="#E0E0E0"/>
<path d="M109.049 29.2827C107.997 29.8843 107.633 31.228 108.234 32.2798L109.139 33.8583L110.86 33.2611C111.783 32.9405 112.384 32.0492 112.334 31.0743C112.312 30.6681 112.16 30.3037 111.945 29.981C111.842 29.8273 111.723 29.6933 111.589 29.5747C111.523 29.5131 111.459 29.4497 111.387 29.3991C111.227 29.2895 111.051 29.2082 110.869 29.1444C110.805 29.1226 110.75 29.0853 110.682 29.0675C110.149 28.9313 109.565 28.9883 109.049 29.2827Z" fill="#E0E0E0"/>
</g>
<defs>
<clipPath id="clip0">
<rect width="126" height="126" fill="white"/>
</clipPath>
</defs>
</svg>
