<svg width="64" height="64" viewBox="0 0 64 64" fill="none" xmlns="http://www.w3.org/2000/svg">
<path d="M60 60L44.9706 44.9706M44.9706 44.9706C49.3137 40.6274 52 34.6274 52 28C52 14.7452 41.2548 4 28 4C14.7452 4 4 14.7452 4 28C4 41.2548 14.7452 52 28 52C34.6274 52 40.6274 49.3137 44.9706 44.9706Z" stroke="#E0E0E0" stroke-width="2.5" stroke-linecap="round" stroke-linejoin="round"/>
<path fill-rule="evenodd" clip-rule="evenodd" d="M36.877 20.2674C37.3605 20.7509 37.3605 21.5348 36.877 22.0183L22.0198 36.8755C21.5363 37.359 20.7524 37.359 20.2689 36.8755C19.7854 36.392 19.7854 35.6081 20.2689 35.1246L35.126 20.2674C35.6095 19.7839 36.3934 19.7839 36.877 20.2674Z" fill="#E0E0E0"/>
<path fill-rule="evenodd" clip-rule="evenodd" d="M20.2689 20.2674C20.7524 19.7839 21.5363 19.7839 22.0198 20.2674L36.877 35.1246C37.3605 35.6081 37.3605 36.392 36.877 36.8755C36.3934 37.359 35.6095 37.359 35.126 36.8755L20.2689 22.0183C19.7854 21.5348 19.7854 20.7509 20.2689 20.2674Z" fill="#E0E0E0"/>
</svg>
