<svg width="20" height="20" viewBox="0 0 20 20" fill="none" xmlns="http://www.w3.org/2000/svg">
<path d="M14.1667 2.92159C14.1667 2.81109 14.1228 2.70511 14.0446 2.62697C13.9665 2.54883 13.8605 2.50493 13.75 2.50493H11.6667C10.6176 2.45267 9.5905 2.81775 8.80977 3.52041C8.02904 4.22307 7.55815 5.20617 7.5 6.25493V8.50493H5.41667C5.30616 8.50493 5.20018 8.54883 5.12204 8.62697C5.0439 8.70511 5 8.81109 5 8.92159V11.0883C5 11.1988 5.0439 11.3047 5.12204 11.3829C5.20018 11.461 5.30616 11.5049 5.41667 11.5049H7.5V17.0883C7.5 17.1988 7.5439 17.3047 7.62204 17.3829C7.70018 17.461 7.80616 17.5049 7.91667 17.5049H10.4167C10.5272 17.5049 10.6332 17.461 10.7113 17.3829C10.7894 17.3047 10.8333 17.1988 10.8333 17.0883V11.5049H13.0167C13.1093 11.5063 13.1998 11.4767 13.2737 11.4208C13.3477 11.365 13.4009 11.2861 13.425 11.1966L14.025 9.02993C14.0416 8.96836 14.0438 8.90381 14.0315 8.84125C14.0192 8.77869 13.9927 8.71978 13.9541 8.66907C13.9155 8.61835 13.8657 8.57718 13.8086 8.54873C13.7516 8.52027 13.6888 8.50528 13.625 8.50493H10.8333V6.25493C10.8541 6.04866 10.9509 5.85752 11.105 5.71884C11.2591 5.58016 11.4594 5.50389 11.6667 5.50493H13.75C13.8605 5.50493 13.9665 5.46103 14.0446 5.38289C14.1228 5.30475 14.1667 5.19877 14.1667 5.08826V2.92159Z" stroke="#1D1D1F"/>
</svg>
