<svg width="20" height="20" viewBox="0 0 20 20" fill="none" xmlns="http://www.w3.org/2000/svg">
<path d="M17.0833 6.66675H2.91667M5.5 17.5001H14.5C16.1569 17.5001 17.5 16.1569 17.5 14.5001V7.16675C17.5 5.50989 16.1569 4.16675 14.5 4.16675H5.5C3.84315 4.16675 2.5 5.50989 2.5 7.16675V14.5001C2.5 16.1569 3.84315 17.5001 5.5 17.5001Z" stroke="#828282" stroke-linecap="round"/>
<path d="M6.25 4.16675V2.29175" stroke="#828282" stroke-linecap="round" stroke-linejoin="round"/>
<path d="M13.75 4.16675V2.29175" stroke="#828282" stroke-linecap="round" stroke-linejoin="round"/>
<path d="M6.875 14.5833H5.625M6.875 12.0833H5.625M6.875 9.58325H5.625M10.625 14.5833H9.375M10.625 12.0833H9.375M10.625 9.58325H9.375M14.375 14.5833H13.125M14.375 12.0833H13.125M14.375 9.58325H13.125" stroke="#828282" stroke-linecap="round"/>
</svg>
