<svg width="16" height="16" viewBox="0 0 16 16" fill="none" xmlns="http://www.w3.org/2000/svg">
<path fill-rule="evenodd" clip-rule="evenodd" d="M7.35333 2.23723C7.53399 2.08407 7.76315 2 8 2C8.23685 2 8.46601 2.08407 8.64667 2.23723L13.6467 6.47923C13.7574 6.57309 13.8463 6.68993 13.9074 6.82164C13.9684 6.95334 14 7.09674 14 7.24189V13.5106C14 13.7758 13.8946 14.0301 13.7071 14.2177C13.5196 14.4052 13.2652 14.5106 13 14.5106H9.16667C9.03406 14.5106 8.90688 14.4579 8.81311 14.3641C8.71935 14.2703 8.66667 14.1432 8.66667 14.0106V9.84389H7.33333V14.0106C7.33333 14.1432 7.28065 14.2703 7.18689 14.3641C7.09312 14.4579 6.96594 14.5106 6.83333 14.5106H3C2.73478 14.5106 2.48043 14.4052 2.29289 14.2177C2.10536 14.0301 2 13.7758 2 13.5106V7.24189C2 6.94856 2.12933 6.66923 2.35333 6.47923L7.35333 2.23723ZM8 2.99989L3 7.24189V13.5106H6.33333V9.34389C6.33333 9.21129 6.38601 9.08411 6.47978 8.99034C6.57355 8.89657 6.70073 8.84389 6.83333 8.84389H9.16667C9.29927 8.84389 9.42645 8.89657 9.52022 8.99034C9.61399 9.08411 9.66667 9.21129 9.66667 9.34389V13.5106H13V7.24189L8 2.99989Z" fill="#828282"/>
</svg>
