<svg width="33" height="27" viewBox="0 0 33 27" fill="none" xmlns="http://www.w3.org/2000/svg">
<path d="M30.9841 0.318176H1.12943C0.664381 0.318176 0.112305 0.867199 0.112305 1.32724L0.140207 21.0591C0.140207 21.5192 0.691619 22.0682 1.15667 22.0682H14.0637L13.4724 24.783C13.2718 25.6859 12.434 26.2811 11.5279 26.2251C11.5119 26.2264 11.4993 26.227 11.482 26.2284C11.3551 26.2284 11.2522 26.3299 11.2522 26.4557C11.2522 26.5566 11.3212 26.6403 11.4136 26.6693C11.4236 26.6739 11.4322 26.6779 11.4415 26.6792V26.6818H11.5392H20.674V26.6785C20.684 26.6772 20.6933 26.6732 20.7019 26.6686C20.7956 26.6403 20.864 26.5566 20.864 26.4551C20.864 26.3292 20.7617 26.2277 20.6341 26.2277C20.6169 26.227 20.6049 26.2257 20.5883 26.2244C19.6828 26.2804 18.8437 25.6859 18.6431 24.7823L18.0498 22.0682H30.9841C31.4491 22.0682 32.0012 21.5192 32.0012 21.0591V1.32724C32.0012 0.867199 31.4491 0.318176 30.9841 0.318176ZM16.6852 20.6373C16.6653 20.6768 16.6447 20.7144 16.6234 20.7474C16.6009 20.781 16.5796 20.8113 16.5597 20.837C16.5377 20.8627 16.5205 20.8805 16.5092 20.893C16.4859 20.9121 16.4627 20.9293 16.4381 20.9411C16.4148 20.9537 16.3903 20.9583 16.3643 20.9583C16.3477 20.9583 16.3278 20.955 16.3045 20.9477C16.2806 20.9405 16.2567 20.9332 16.2321 20.9253C16.2069 20.9174 16.1823 20.9102 16.1577 20.9022C16.1318 20.8957 16.1099 20.8924 16.0893 20.8924C16.0674 20.8924 16.0428 20.8957 16.0176 20.9036C15.991 20.9108 15.9651 20.9187 15.9392 20.9273C15.9126 20.9359 15.888 20.9431 15.8667 20.9504C15.8448 20.9569 15.8256 20.9602 15.8116 20.9602C15.7903 20.9602 15.7711 20.9569 15.7531 20.9504C15.7339 20.9431 15.7139 20.9312 15.6933 20.9148C15.6728 20.8983 15.6522 20.8765 15.6296 20.8489C15.6057 20.8212 15.5804 20.7882 15.5525 20.7467C15.5259 20.7085 15.504 20.6669 15.4814 20.6221C15.4608 20.576 15.4409 20.5292 15.4263 20.4798C15.4117 20.4317 15.399 20.3829 15.3917 20.3328C15.3831 20.2834 15.3778 20.2359 15.3778 20.1884C15.3778 20.1166 15.3884 20.0494 15.4097 19.9881C15.4309 19.9274 15.4615 19.8734 15.4987 19.8286C15.5366 19.7831 15.5804 19.7488 15.6302 19.7238C15.6801 19.6994 15.7345 19.6869 15.7937 19.6869C15.8368 19.6869 15.8887 19.6994 15.9471 19.7238C16.0049 19.7488 16.0455 19.7614 16.0687 19.7614C16.0767 19.7614 16.0913 19.7581 16.1112 19.7502C16.1325 19.7429 16.1637 19.7324 16.2029 19.7172C16.2421 19.704 16.272 19.6948 16.2946 19.6895C16.3178 19.6842 16.3418 19.6816 16.3657 19.6816C16.4314 19.6816 16.4919 19.6968 16.5517 19.7284C16.6102 19.7587 16.6573 19.7996 16.6912 19.851C16.6281 19.8886 16.5822 19.9334 16.553 19.9868C16.5251 20.0388 16.5112 20.1008 16.5112 20.1713C16.5112 20.2451 16.5304 20.3124 16.5703 20.3737C16.6095 20.4349 16.6646 20.4817 16.7351 20.5127C16.7218 20.5549 16.7045 20.5971 16.6852 20.6373ZM16.0534 19.6335C16.0534 19.592 16.0627 19.5511 16.0813 19.5096C16.0999 19.4687 16.1232 19.4298 16.1551 19.3956C16.1843 19.3633 16.2202 19.3349 16.2614 19.3132C16.3019 19.2914 16.3444 19.2809 16.3883 19.2782C16.3903 19.2842 16.3909 19.2901 16.3909 19.2947V19.3125C16.3909 19.3547 16.3816 19.3982 16.3637 19.441C16.3457 19.4839 16.3232 19.5221 16.2933 19.5557C16.264 19.59 16.2308 19.617 16.1929 19.6368C16.1557 19.6572 16.1179 19.6664 16.0793 19.6664C16.0634 19.6664 16.0554 19.6645 16.0541 19.6572C16.0534 19.6533 16.0534 19.6454 16.0534 19.6335ZM30.6725 18.1136H1.44101V1.63636H30.6725V18.1136Z" fill="#1D1D1F"/>
</svg>
