<svg width="20" height="20" viewBox="0 0 20 20" fill="none" xmlns="http://www.w3.org/2000/svg">
<g clip-path="url(#clip0)">
<path fill-rule="evenodd" clip-rule="evenodd" d="M10.2325 1.39125C10.0833 1.33144 9.91673 1.33144 9.7675 1.39125L2.3075 4.375L5.3125 5.57625L13.005 2.5L10.2325 1.39125ZM14.6875 3.17375L6.995 6.25L10 7.45125L17.6925 4.375L14.6875 3.17375ZM18.75 5.29875L10.625 8.54875V18.4512L18.75 15.2012V5.29999V5.29875ZM9.375 18.4525V8.54749L1.25 5.29875V15.2025L9.375 18.4525ZM9.30375 0.229995C9.75071 0.0512443 10.2493 0.0512443 10.6962 0.229995L19.6075 3.795C19.7234 3.84143 19.8227 3.92149 19.8926 4.02486C19.9626 4.12823 20 4.25018 20 4.375V15.2025C19.9998 15.4523 19.9249 15.6963 19.7847 15.903C19.6446 16.1098 19.4457 16.2698 19.2138 16.3625L10.2325 19.955C10.0833 20.0148 9.91673 20.0148 9.7675 19.955L0.7875 16.3625C0.555314 16.27 0.356178 16.1101 0.215803 15.9033C0.0754271 15.6965 0.000257912 15.4524 0 15.2025L0 4.375C2.90499e-05 4.25018 0.0374297 4.12823 0.107384 4.02486C0.177338 3.92149 0.276641 3.84143 0.3925 3.795L9.30375 0.229995Z" fill="#BDBDBD"/>
</g>
<defs>
<clipPath id="clip0">
<rect width="20" height="20" fill="white"/>
</clipPath>
</defs>
</svg>
