<svg width="20" height="20" viewBox="0 0 20 20" fill="none" xmlns="http://www.w3.org/2000/svg">
<path fill-rule="evenodd" clip-rule="evenodd" d="M9.9998 3C8.09909 3 7.86056 3.00808 7.11373 3.042C6.36852 3.07592 5.85969 3.19438 5.41439 3.36722C4.94741 3.5431 4.52441 3.81873 4.17489 4.17489C3.81867 4.52456 3.54303 4.94775 3.36722 5.41493C3.19438 5.85969 3.07646 6.36852 3.042 7.11373C3.00808 7.86056 3 8.09909 3 9.9998C3 11.9005 3.00808 12.1391 3.042 12.8859C3.07592 13.6311 3.19438 14.1399 3.36722 14.5847C3.54652 15.045 3.78559 15.4354 4.17489 15.8247C4.52441 16.1809 4.94741 16.4565 5.41439 16.6324C5.85969 16.8047 6.36852 16.9231 7.11373 16.9576C7.86056 16.9915 8.09909 16.9996 9.9998 16.9996C11.9005 16.9996 12.1391 16.9915 12.8859 16.9576C13.6311 16.9237 14.1399 16.8052 14.5847 16.6324C15.0519 16.4566 15.4751 16.181 15.8247 15.8247C16.1809 15.475 16.4566 15.0519 16.6324 14.5847C16.8047 14.1399 16.9231 13.6311 16.9576 12.8859C16.9915 12.1391 16.9996 11.9005 16.9996 9.9998C16.9996 8.09909 16.9915 7.86056 16.9576 7.11373C16.9237 6.36852 16.8052 5.85969 16.6319 5.41493C16.4562 4.9478 16.1807 4.52462 15.8247 4.17489C15.4751 3.81865 15.0519 3.54302 14.5847 3.36722C14.1399 3.19492 13.6311 3.07646 12.8859 3.042C12.1391 3.00808 11.9005 3 9.9998 3ZM9.9998 4.26104C11.8688 4.26104 12.0901 4.26858 12.8283 4.30196C13.5105 4.33319 13.8815 4.44734 14.1281 4.54319C14.4549 4.67026 14.6881 4.82156 14.9331 5.06656C15.178 5.31155 15.3293 5.5447 15.4564 5.87154C15.5523 6.11814 15.6664 6.48859 15.6976 7.17134C15.731 7.90902 15.7386 8.13086 15.7386 9.9998C15.7386 11.8688 15.731 12.0901 15.6976 12.8283C15.6664 13.511 15.5523 13.8815 15.4564 14.1281C15.3443 14.4321 15.1655 14.7072 14.9331 14.9331C14.7072 15.1655 14.4321 15.3443 14.1281 15.4564C13.8815 15.5523 13.5105 15.6664 12.8283 15.6976C12.0906 15.731 11.8688 15.7386 9.9998 15.7386C8.13086 15.7386 7.90902 15.731 7.17134 15.6976C6.48859 15.6664 6.11814 15.5523 5.87154 15.4564C5.56747 15.3443 5.2924 15.1655 5.06656 14.9331C4.83418 14.7072 4.65535 14.4321 4.54319 14.1281C4.44734 13.8815 4.33319 13.511 4.30196 12.8283C4.26858 12.0906 4.26104 11.8688 4.26104 9.9998C4.26104 8.13086 4.26858 7.90955 4.30196 7.17134C4.33319 6.48859 4.44734 6.11814 4.54319 5.87154C4.67026 5.5447 4.82156 5.31155 5.06656 5.06656C5.29241 4.83415 5.56748 4.65531 5.87154 4.54319C6.11814 4.44734 6.48859 4.33319 7.17134 4.30196C7.90902 4.26858 8.13086 4.26104 9.9998 4.26104" fill="#1D1D1F"/>
<path fill-rule="evenodd" clip-rule="evenodd" d="M10.0006 6.23083C9.00094 6.23083 8.04225 6.62793 7.3354 7.33478C6.62855 8.04163 6.23145 9.00032 6.23145 9.99995C6.23145 10.9996 6.62855 11.9583 7.3354 12.6651C8.04225 13.372 9.00094 13.7691 10.0006 13.7691C11.0002 13.7691 11.9589 13.372 12.6657 12.6651C13.3726 11.9583 13.7697 10.9996 13.7697 9.99995C13.7697 9.00032 13.3726 8.04163 12.6657 7.33478C11.9589 6.62793 11.0002 6.23083 10.0006 6.23083ZM10.0006 12.423C9.35795 12.423 8.74165 12.1677 8.28724 11.7133C7.83284 11.2589 7.57756 10.6426 7.57756 9.99995C7.57756 9.35733 7.83284 8.74103 8.28724 8.28663C8.74165 7.83222 9.35795 7.57694 10.0006 7.57694C10.6432 7.57694 11.2595 7.83222 11.7139 8.28663C12.1683 8.74103 12.4236 9.35733 12.4236 9.99995C12.4236 10.6426 12.1683 11.2589 11.7139 11.7133C11.2595 12.1677 10.6432 12.423 10.0006 12.423ZM14.6851 6.28467C14.6851 6.39781 14.6628 6.50983 14.6195 6.61436C14.5762 6.71888 14.5127 6.81385 14.4327 6.89385C14.3527 6.97385 14.2578 7.03731 14.1532 7.08061C14.0487 7.1239 13.9367 7.14619 13.8235 7.14619C13.7104 7.14619 13.5984 7.1239 13.4939 7.08061C13.3893 7.03731 13.2944 6.97385 13.2144 6.89385C13.1344 6.81385 13.0709 6.71888 13.0276 6.61436C12.9843 6.50983 12.962 6.39781 12.962 6.28467C12.962 6.05618 13.0528 5.83705 13.2144 5.67549C13.3759 5.51392 13.5951 5.42316 13.8235 5.42316C14.052 5.42316 14.2712 5.51392 14.4327 5.67549C14.5943 5.83705 14.6851 6.05618 14.6851 6.28467Z" fill="#1D1D1F"/>
</svg>
