<svg width="30" height="30" viewBox="0 0 30 30" fill="none" xmlns="http://www.w3.org/2000/svg">
<g clip-path="url(#clip0)">
<path fill-rule="evenodd" clip-rule="evenodd" d="M21.5549 3H5.78477C5.56899 3.02148 5.36901 3.12241 5.22388 3.28308C5.07876 3.44375 4.99894 3.65261 5.00001 3.86884V26.9823C5.00151 27.0835 5.02301 27.1835 5.06326 27.2765C5.10352 27.3694 5.16174 27.4536 5.23462 27.5241C5.30749 27.5946 5.39358 27.6502 5.48798 27.6875C5.58237 27.7249 5.68322 27.7433 5.78477 27.7418H21.5549C21.6549 27.7426 21.754 27.7234 21.8464 27.6854C21.9389 27.6475 22.0228 27.5915 22.0932 27.5207C22.1636 27.4499 22.2192 27.3659 22.2565 27.2734C22.2939 27.1809 22.3124 27.0819 22.3108 26.9823V3.86884C22.3179 3.65566 22.2439 3.44769 22.1038 3.28657C21.9636 3.12546 21.7676 3.0231 21.5549 3V3ZM13.6554 3.81705C13.7307 3.81705 13.8044 3.83933 13.867 3.88105C13.9296 3.92278 13.9784 3.98209 14.0073 4.05148C14.0361 4.12088 14.0436 4.19723 14.0289 4.2709C14.0142 4.34456 13.978 4.41223 13.9247 4.46534C13.8714 4.51845 13.8036 4.55462 13.7297 4.56927C13.6558 4.58392 13.5793 4.5764 13.5097 4.54766C13.4401 4.51892 13.3806 4.47024 13.3388 4.40779C13.2969 4.34534 13.2746 4.27192 13.2746 4.19681C13.2746 4.09609 13.3147 3.9995 13.3861 3.92828C13.4575 3.85706 13.5544 3.81705 13.6554 3.81705ZM13.6554 27.1376C13.5333 27.1376 13.4139 27.1015 13.3124 27.0339C13.2109 26.9662 13.1317 26.8701 13.085 26.7576C13.0383 26.6451 13.026 26.5213 13.0499 26.4018C13.0737 26.2824 13.1325 26.1727 13.2188 26.0866C13.3052 26.0005 13.4152 25.9419 13.535 25.9181C13.6547 25.8944 13.7789 25.9065 13.8917 25.9531C14.0045 25.9997 14.1009 26.0787 14.1688 26.1799C14.2366 26.2811 14.2728 26.4002 14.2728 26.5219C14.2713 26.6842 14.2056 26.8394 14.09 26.9536C13.9743 27.0678 13.8182 27.1319 13.6554 27.1319V27.1376ZM21.1568 25.4402H6.15406V5.30156H21.1568V25.4402Z" fill="#333333"/>
<g opacity="0.5">
<path d="M24.4129 7.61454L24.4638 24.4915L25.6712 24.4913L25.6201 7.61455L24.4129 7.61454Z" fill="#1D1D1F"/>
<path d="M24.4676 25.4339L24.4721 26.4482C24.4722 26.9265 24.6984 27.3634 25.0758 27.6379C25.4532 27.3634 25.6795 26.9266 25.6796 26.4501L25.675 25.4337L24.4676 25.4339Z" fill="#1D1D1F"/>
</g>
</g>
<defs>
<clipPath id="clip0">
<rect width="30" height="30" fill="white"/>
</clipPath>
</defs>
</svg>
