<svg width="27" height="31" viewBox="0 0 27 31" fill="none" xmlns="http://www.w3.org/2000/svg">
<path d="M24.4247 0.0192566H12.7721C12.1926 0.0192566 11.6369 0.231996 11.2271 0.610676C10.8174 0.989355 10.5872 1.50295 10.5872 2.03849V28.9616C10.5872 29.4971 10.8174 30.0107 11.2271 30.3894C11.6369 30.7681 12.1926 30.9808 12.7721 30.9808H24.4247C25.0042 30.9808 25.5599 30.7681 25.9697 30.3894C26.3794 30.0107 26.6096 29.4971 26.6096 28.9616V2.03849C26.6096 1.50295 26.3794 0.989355 25.9697 0.610676C25.5599 0.231996 25.0042 0.0192566 24.4247 0.0192566ZM20.2953 0.793295C20.3428 0.793295 20.3893 0.806322 20.4288 0.830728C20.4684 0.855135 20.4992 0.889824 20.5174 0.930411C20.5355 0.970997 20.5403 1.01566 20.531 1.05874C20.5218 1.10183 20.4989 1.14141 20.4653 1.17247C20.4316 1.20353 20.3888 1.22469 20.3422 1.23326C20.2956 1.24183 20.2473 1.23743 20.2033 1.22062C20.1594 1.20381 20.1219 1.17534 20.0955 1.13881C20.0691 1.10228 20.055 1.05934 20.055 1.01541C20.055 0.956502 20.0803 0.900006 20.1254 0.858351C20.1704 0.816697 20.2316 0.793295 20.2953 0.793295ZM18.0522 0.847141H19.5088C19.557 0.847141 19.6034 0.864869 19.6375 0.896426C19.6717 0.927983 19.6908 0.970783 19.6908 1.01541C19.6908 1.06004 19.6717 1.10284 19.6375 1.1344C19.6034 1.16595 19.557 1.18368 19.5088 1.18368H18.0522C18.0039 1.18368 17.9576 1.16595 17.9234 1.1344C17.8893 1.10284 17.8701 1.06004 17.8701 1.01541C17.8701 0.970783 17.8893 0.927983 17.9234 0.896426C17.9576 0.864869 18.0039 0.847141 18.0522 0.847141ZM25.8813 28.9616C25.8813 29.3186 25.7278 29.661 25.4547 29.9134C25.1815 30.1659 24.811 30.3077 24.4247 30.3077H12.7721C12.3858 30.3077 12.0153 30.1659 11.7421 29.9134C11.4689 29.661 11.3155 29.3186 11.3155 28.9616V2.03849C11.3155 1.68147 11.4689 1.33907 11.7421 1.08661C12.0153 0.83416 12.3858 0.692334 12.7721 0.692334H14.5928C14.6894 0.692334 14.782 0.72779 14.8503 0.790904C14.9186 0.854017 14.9569 0.939617 14.9569 1.02887V1.36541C14.9569 1.54392 15.0337 1.71512 15.1703 1.84135C15.3068 1.96757 15.4921 2.03849 15.6852 2.03849H21.5116C21.7047 2.03849 21.89 1.96757 22.0265 1.84135C22.1631 1.71512 22.2399 1.54392 22.2399 1.36541V1.02887C22.2399 0.939617 22.2782 0.854017 22.3465 0.790904C22.4148 0.72779 22.5074 0.692334 22.604 0.692334H24.4247C24.811 0.692334 25.1815 0.83416 25.4547 1.08661C25.7278 1.33907 25.8813 1.68147 25.8813 2.03849V28.9616ZM2.71436 30.3077C2.29135 30.3077 1.88567 30.1524 1.58656 29.876C1.28744 29.5995 1.1194 29.2246 1.1194 28.8337V4.85868C1.1194 4.46774 1.28744 4.09281 1.58656 3.81638C1.88567 3.53994 2.29135 3.38464 2.71436 3.38464H4.03257C4.12915 3.38464 4.22177 3.4201 4.29006 3.48321C4.35835 3.54632 4.39672 3.63192 4.39672 3.72118V4.05772C4.39672 4.23623 4.47345 4.40743 4.61003 4.53366C4.74661 4.65988 4.93185 4.7308 5.12501 4.7308H9.8589V2.71156H2.71436C2.09879 2.71334 1.50898 2.94012 1.0737 3.3424C0.638421 3.74468 0.393034 4.28978 0.391113 4.85868L0.391113 28.8337C0.393034 29.4026 0.638421 29.9477 1.0737 30.35C1.50898 30.7522 2.09879 30.979 2.71436 30.9808H10.8639C10.6241 30.7884 10.4199 30.561 10.2595 30.3077H2.71436ZM9.36366 3.4856C9.4112 3.4856 9.45766 3.49863 9.49719 3.52304C9.53671 3.54744 9.56751 3.58213 9.5857 3.62272C9.60389 3.66331 9.60865 3.70797 9.59938 3.75105C9.59011 3.79414 9.56722 3.83371 9.53361 3.86478C9.49999 3.89584 9.45717 3.917 9.41055 3.92557C9.36393 3.93414 9.31561 3.92974 9.27169 3.91293C9.22777 3.89612 9.19024 3.86765 9.16383 3.83112C9.13742 3.79459 9.12333 3.75165 9.12333 3.70772C9.12331 3.67797 9.12976 3.64853 9.14229 3.62113C9.15482 3.59374 9.17318 3.56895 9.19627 3.54823C9.21937 3.52751 9.24673 3.5113 9.27674 3.50054C9.30674 3.48978 9.33878 3.4847 9.37094 3.4856H9.36366ZM7.12052 3.53945H8.57711C8.6254 3.53945 8.67171 3.55718 8.70585 3.58873C8.74 3.62029 8.75918 3.66309 8.75918 3.70772C8.75918 3.75235 8.74 3.79515 8.70585 3.8267C8.67171 3.85826 8.6254 3.87599 8.57711 3.87599H7.12052C7.07224 3.87599 7.02593 3.85826 6.99178 3.8267C6.95763 3.79515 6.93845 3.75235 6.93845 3.70772C6.93845 3.66309 6.95763 3.62029 6.99178 3.58873C7.02593 3.55718 7.07224 3.53945 7.12052 3.53945Z" fill="#4F4F4F"/>
</svg>
