<svg width="40" height="23" viewBox="0 0 40 23" fill="none" xmlns="http://www.w3.org/2000/svg">
<path d="M39.9072 21.6591H37.5889C37.7895 21.3926 37.9106 21.0676 37.9106 20.7152V1.77911C37.9106 0.878806 37.1382 0.146622 36.1892 0.146622H4.70206C3.75343 0.146622 2.98132 0.879129 2.98132 1.77911V20.7152C2.98132 21.0747 3.10853 21.4051 3.31704 21.6756H0.976579C0.976579 21.6756 0.871478 21.7766 1.14869 22.0392C1.93473 22.7853 3.70037 22.8498 3.70037 22.8498V22.8479C3.70037 22.8479 36.7729 22.8553 36.8096 22.8534C38.6531 22.8534 39.2484 22.329 39.7358 22.0231C40.0967 21.6791 39.9072 21.6591 39.9072 21.6591ZM22.6567 22.0573H18.2258V21.7717H22.656L22.6567 22.0573ZM36.6402 20.3399H4.20036V1.24732H36.6406V20.3399H36.6402Z" fill="#333333"/>
</svg>
