<svg width="14" height="14" viewBox="0 0 14 14" fill="none" xmlns="http://www.w3.org/2000/svg">
<path d="M12.0009 13.5H11.9159C2.09086 12.935 0.695856 4.645 0.500856 2.115C0.485144 1.91829 0.5084 1.72041 0.569294 1.53271C0.630187 1.345 0.727519 1.17115 0.855715 1.02113C0.98391 0.8711 1.14045 0.747844 1.31636 0.65842C1.49227 0.568996 1.6841 0.515161 1.88086 0.5H4.63586C4.83614 0.499807 5.03186 0.559755 5.19767 0.672081C5.36349 0.784407 5.49175 0.943935 5.56586 1.13L6.32586 3C6.39903 3.18177 6.41719 3.38104 6.37808 3.57305C6.33897 3.76505 6.24431 3.94134 6.10586 4.08L5.04086 5.155C5.20721 6.10037 5.65995 6.97183 6.3378 7.65148C7.01566 8.33112 7.88592 8.78615 8.83086 8.955L9.91586 7.88C10.0566 7.74308 10.2345 7.65063 10.4275 7.61417C10.6204 7.57771 10.8199 7.59887 11.0009 7.675L12.8859 8.43C13.0691 8.50644 13.2255 8.63571 13.335 8.80134C13.4445 8.96696 13.5023 9.16144 13.5009 9.36V12C13.5009 12.3978 13.3428 12.7794 13.0615 13.0607C12.7802 13.342 12.3987 13.5 12.0009 13.5ZM2.00086 1.5C1.86825 1.5 1.74107 1.55268 1.6473 1.64645C1.55353 1.74022 1.50086 1.86739 1.50086 2V2.04C1.73086 5 3.20586 12 11.9709 12.5C12.0365 12.5041 12.1024 12.4951 12.1646 12.4737C12.2268 12.4522 12.2842 12.4187 12.3334 12.375C12.3827 12.3314 12.4228 12.2784 12.4515 12.2192C12.4803 12.16 12.497 12.0957 12.5009 12.03V9.36L10.6159 8.605L9.18086 10.03L8.94086 10C4.59086 9.455 4.00086 5.105 4.00086 5.06L3.97086 4.82L5.39086 3.385L4.64086 1.5H2.00086Z" fill="#828282"/>
</svg>
