<svg width="32" height="32" viewBox="0 0 32 32" fill="none" xmlns="http://www.w3.org/2000/svg">
<path d="M4.27654 8.53204C3.90831 8.62735 3.62706 8.90053 3.52289 9.26355C2.68696 12.1875 3.50258 15.3385 5.65102 17.4875C7.87289 19.7094 11.1687 20.4969 14.1354 19.5398L22.2963 27.6823C23.013 28.399 23.9687 28.7966 24.9937 28.8023C26.012 28.7966 26.9677 28.399 27.6843 27.6823C29.1698 26.1969 29.1698 23.7794 27.6838 22.2935L19.5291 14.157C20.5 11.1826 19.7182 7.87735 17.4901 5.64896C15.3411 3.49974 12.1885 2.68516 9.2656 3.52084C8.9031 3.62474 8.62966 3.90626 8.53435 4.27396C8.438 4.64636 8.54216 5.03073 8.813 5.30183L12.0463 8.5349C12.5109 9.00001 12.7713 9.62527 12.7797 10.2828C12.7719 10.9229 12.5317 11.5271 12.1036 11.9846C11.6651 12.4526 11.0526 12.7164 10.3791 12.7276C9.65675 12.7414 8.94893 12.4557 8.44268 11.9495L5.30414 8.81042C5.03279 8.53933 4.64841 8.43568 4.27654 8.53204ZM10.3359 13.7945C10.3557 13.7945 10.376 13.7943 10.3963 13.794C11.3614 13.7784 12.2442 13.3945 12.8817 12.7138C13.4927 12.0615 13.8354 11.2026 13.8463 10.2828C13.8349 9.3323 13.4635 8.44376 12.8005 7.78073L9.55935 4.54636C12.1099 3.81667 14.8614 4.52813 16.7359 6.40313C18.7515 8.41902 19.4109 11.4448 18.4156 14.1112C18.3422 14.307 18.3953 14.5323 18.5432 14.68L26.9302 23.0482C28 24.118 28 25.8583 26.9302 26.9281C26.4135 27.4448 25.7234 27.7315 24.9937 27.7357C24.2573 27.7315 23.5672 27.4448 23.05 26.9276L14.6531 18.5495C14.5515 18.4479 14.4151 18.3938 14.2765 18.3938C14.2146 18.3938 14.1521 18.4044 14.0922 18.4268C11.4338 19.4078 8.4156 18.7432 6.40518 16.7333C4.53018 14.8583 3.81925 12.1083 4.54998 9.56485L7.68852 12.7037C8.38383 13.399 9.34529 13.7945 10.3359 13.7945Z" fill="#110B15"/>
<path d="M24.0636 25.5216C24.2001 25.5216 24.3365 25.4695 24.4407 25.3654L25.3678 24.4385C25.5761 24.2305 25.5761 23.8927 25.3678 23.6844C25.1594 23.476 24.8219 23.476 24.6136 23.6844L23.6865 24.6112C23.4782 24.8193 23.4782 25.157 23.6865 25.3654C23.7907 25.4695 23.9271 25.5216 24.0636 25.5216Z" fill="#110B15"/>
</svg>
