<svg width="24" height="24" viewBox="0 0 24 24" fill="none" xmlns="http://www.w3.org/2000/svg">
<path d="M19.5522 2.99703C19.3115 3.01455 19.0751 3.07103 18.8525 3.16428H18.8495C18.6357 3.24903 17.6195 3.67653 16.0745 4.32453L10.538 6.65628C6.56522 8.32878 2.65997 9.97578 2.65997 9.97578L2.70647 9.95778C2.70647 9.95778 2.43722 10.0463 2.15597 10.239C1.98222 10.3496 1.8327 10.4943 1.71647 10.6643C1.57847 10.8668 1.46747 11.1765 1.50872 11.4968C1.57622 12.0383 1.92722 12.363 2.17922 12.5423C2.43422 12.7238 2.67722 12.8085 2.67722 12.8085H2.68322L6.34547 14.0423C6.50972 14.5695 7.46147 17.6985 7.69022 18.4193C7.82522 18.8498 7.95647 19.119 8.12072 19.3245C8.20022 19.4295 8.29322 19.5173 8.40497 19.5878C8.46307 19.6216 8.52501 19.6483 8.58947 19.6673L8.55197 19.6583C8.56322 19.6613 8.57222 19.6703 8.58047 19.6733C8.61047 19.6815 8.63072 19.6845 8.66897 19.6905C9.24872 19.866 9.71447 19.506 9.71447 19.506L9.74072 19.485L11.903 17.5163L15.527 20.2965L15.6095 20.3318C16.3647 20.6633 17.1297 20.4788 17.534 20.1533C17.9412 19.8255 18.0995 19.4063 18.0995 19.4063L18.1257 19.3388L20.9262 4.99203C21.0057 4.63803 21.026 4.30653 20.9382 3.98478C20.8477 3.65915 20.6388 3.37909 20.3525 3.19953C20.112 3.05337 19.8332 2.98282 19.5522 2.99703ZM19.4765 4.53453C19.4735 4.58178 19.4825 4.57653 19.4615 4.66728V4.67553L16.6872 18.873C16.6752 18.8933 16.655 18.9375 16.5995 18.9818C16.541 19.0283 16.4945 19.0575 16.2507 18.9608L11.8182 15.5625L9.14072 18.003L9.70322 14.4105L16.9452 7.66053C17.2437 7.38303 17.144 7.32453 17.144 7.32453C17.165 6.98403 16.6932 7.22478 16.6932 7.22478L7.56122 12.882L7.55822 12.867L3.18122 11.3933V11.3903L3.16997 11.388C3.17765 11.3855 3.18516 11.3825 3.19247 11.379L3.21647 11.367L3.23972 11.3588C3.23972 11.3588 7.14797 9.71178 11.1207 8.03928C13.1097 7.20153 15.1137 6.35778 16.655 5.70678C18.1962 5.05953 19.3355 4.58478 19.4 4.55928C19.4615 4.53528 19.4322 4.53528 19.4765 4.53528V4.53453Z" fill="#E0E0E0"/>
</svg>
