<svg width="24" height="24" viewBox="0 0 24 24" fill="none" xmlns="http://www.w3.org/2000/svg">
<path d="M19.5522 2.99691C19.3115 3.01443 19.0751 3.07091 18.8525 3.16416H18.8495C18.6357 3.24891 17.6195 3.67641 16.0745 4.32441L10.538 6.65616C6.56522 8.32866 2.65997 9.97566 2.65997 9.97566L2.70647 9.95766C2.70647 9.95766 2.43722 10.0462 2.15597 10.2389C1.98222 10.3495 1.8327 10.4941 1.71647 10.6642C1.57847 10.8667 1.46747 11.1764 1.50872 11.4967C1.57622 12.0382 1.92722 12.3629 2.17922 12.5422C2.43422 12.7237 2.67722 12.8084 2.67722 12.8084H2.68322L6.34547 14.0422C6.50972 14.5694 7.46147 17.6984 7.69022 18.4192C7.82522 18.8497 7.95647 19.1189 8.12072 19.3244C8.20022 19.4294 8.29322 19.5172 8.40497 19.5877C8.46307 19.6215 8.52501 19.6481 8.58947 19.6672L8.55197 19.6582C8.56322 19.6612 8.57222 19.6702 8.58047 19.6732C8.61047 19.6814 8.63072 19.6844 8.66897 19.6904C9.24872 19.8659 9.71447 19.5059 9.71447 19.5059L9.74072 19.4849L11.903 17.5162L15.527 20.2964L15.6095 20.3317C16.3647 20.6632 17.1297 20.4787 17.534 20.1532C17.9412 19.8254 18.0995 19.4062 18.0995 19.4062L18.1257 19.3387L20.9262 4.99191C21.0057 4.63791 21.026 4.30641 20.9382 3.98466C20.8477 3.65903 20.6388 3.37897 20.3525 3.19941C20.112 3.05325 19.8332 2.9827 19.5522 2.99691V2.99691ZM19.4765 4.53441C19.4735 4.58166 19.4825 4.57641 19.4615 4.66716V4.67541L16.6872 18.8729C16.6752 18.8932 16.655 18.9374 16.5995 18.9817C16.541 19.0282 16.4945 19.0574 16.2507 18.9607L11.8182 15.5624L9.14072 18.0029L9.70322 14.4104L16.9452 7.66041C17.2437 7.38291 17.144 7.32441 17.144 7.32441C17.165 6.98391 16.6932 7.22466 16.6932 7.22466L7.56122 12.8819L7.55822 12.8669L3.18122 11.3932V11.3902L3.16997 11.3879C3.17765 11.3854 3.18516 11.3824 3.19247 11.3789L3.21647 11.3669L3.23972 11.3587C3.23972 11.3587 7.14797 9.71166 11.1207 8.03916C13.1097 7.20141 15.1137 6.35766 16.655 5.70666C18.1962 5.05941 19.3355 4.58466 19.4 4.55916C19.4615 4.53516 19.4322 4.53516 19.4765 4.53516V4.53441Z" fill="#2D9CDB"/>
</svg>
