<svg width="63" height="63" viewBox="0 0 63 63" fill="none" xmlns="http://www.w3.org/2000/svg">
<mask id="path-1-inside-1" fill="white">
<path fill-rule="evenodd" clip-rule="evenodd" d="M31.1003 13.9301C26.2529 13.9301 21.8877 16.0779 18.8723 19.5313C18.1079 20.3947 16.7771 20.5 15.9011 19.7209C15.0272 18.9628 14.9388 17.6362 15.7031 16.7518C19.4745 12.4561 24.9705 9.71863 31.1003 9.71863C42.4017 9.71863 51.5111 18.9628 51.7322 30.3548L52.7577 29.3019C53.5705 28.4807 54.9035 28.4597 55.7352 29.2809C56.567 30.0811 56.5817 31.4077 55.7689 32.25L51.1363 36.9879C50.7404 37.388 50.1972 37.6196 49.6307 37.6196C49.0643 37.6196 48.521 37.388 48.1251 36.9879L43.4925 32.25C42.6797 31.4077 42.6944 30.0811 43.5262 29.2809C44.358 28.4597 45.6909 28.4807 46.5037 29.3019L47.5187 30.3338C47.2955 21.1949 39.9865 13.9301 31.1003 13.9301ZM12.5693 23.9324C13.1357 23.9324 13.679 24.164 14.0749 24.5641L18.7075 29.302C19.5203 30.1443 19.5056 31.4709 18.6738 32.2711C17.842 33.0923 16.5091 33.0713 15.6963 32.25L14.6813 31.2182C14.9045 40.3571 22.2135 47.6219 31.0997 47.6219C35.9471 47.6219 40.3123 45.474 43.3277 42.0206C44.0921 41.1573 45.4229 41.052 46.2989 41.8311C47.1728 42.5892 47.2612 43.9158 46.4968 44.8002C42.7255 49.0959 37.2295 51.8334 31.0997 51.8334C19.7983 51.8334 10.6889 42.5892 10.4677 31.1972L9.44226 32.25C8.62944 33.0713 7.29652 33.0923 6.46475 32.2711C5.63299 31.4709 5.61825 30.1443 6.43106 29.302L11.0637 24.5641C11.4595 24.164 12.0028 23.9324 12.5693 23.9324Z"/>
</mask>
<path fill-rule="evenodd" clip-rule="evenodd" d="M31.1003 13.9301C26.2529 13.9301 21.8877 16.0779 18.8723 19.5313C18.1079 20.3947 16.7771 20.5 15.9011 19.7209C15.0272 18.9628 14.9388 17.6362 15.7031 16.7518C19.4745 12.4561 24.9705 9.71863 31.1003 9.71863C42.4017 9.71863 51.5111 18.9628 51.7322 30.3548L52.7577 29.3019C53.5705 28.4807 54.9035 28.4597 55.7352 29.2809C56.567 30.0811 56.5817 31.4077 55.7689 32.25L51.1363 36.9879C50.7404 37.388 50.1972 37.6196 49.6307 37.6196C49.0643 37.6196 48.521 37.388 48.1251 36.9879L43.4925 32.25C42.6797 31.4077 42.6944 30.0811 43.5262 29.2809C44.358 28.4597 45.6909 28.4807 46.5037 29.3019L47.5187 30.3338C47.2955 21.1949 39.9865 13.9301 31.1003 13.9301ZM12.5693 23.9324C13.1357 23.9324 13.679 24.164 14.0749 24.5641L18.7075 29.302C19.5203 30.1443 19.5056 31.4709 18.6738 32.2711C17.842 33.0923 16.5091 33.0713 15.6963 32.25L14.6813 31.2182C14.9045 40.3571 22.2135 47.6219 31.0997 47.6219C35.9471 47.6219 40.3123 45.474 43.3277 42.0206C44.0921 41.1573 45.4229 41.052 46.2989 41.8311C47.1728 42.5892 47.2612 43.9158 46.4968 44.8002C42.7255 49.0959 37.2295 51.8334 31.0997 51.8334C19.7983 51.8334 10.6889 42.5892 10.4677 31.1972L9.44226 32.25C8.62944 33.0713 7.29652 33.0923 6.46475 32.2711C5.63299 31.4709 5.61825 30.1443 6.43106 29.302L11.0637 24.5641C11.4595 24.164 12.0028 23.9324 12.5693 23.9324Z" fill="white"/>
<path d="M18.8723 19.5313L19.3089 19.9179L19.3115 19.9149L18.8723 19.5313ZM15.9011 19.7209L16.2886 19.2851L16.2832 19.2804L15.9011 19.7209ZM15.7031 16.7518L15.2649 16.367L15.262 16.3705L15.7031 16.7518ZM51.7322 30.3548L51.1492 30.3661L51.1763 31.7613L52.15 30.7617L51.7322 30.3548ZM52.7577 29.3019L52.3433 28.8917L52.34 28.8951L52.7577 29.3019ZM55.7352 29.2809L55.3255 29.6959L55.331 29.7011L55.7352 29.2809ZM55.7689 32.25L56.1859 32.6577L56.1885 32.6549L55.7689 32.25ZM51.1363 36.9879L51.5508 37.398L51.5533 37.3955L51.1363 36.9879ZM48.1251 36.9879L47.7082 37.3956L47.7106 37.398L48.1251 36.9879ZM43.4925 32.25L43.0729 32.6549L43.0756 32.6576L43.4925 32.25ZM43.5262 29.2809L43.9305 29.7012L43.9359 29.6958L43.5262 29.2809ZM46.5037 29.3019L46.9194 28.893L46.9182 28.8917L46.5037 29.3019ZM47.5187 30.3338L47.103 30.7427L48.1376 31.7945L48.1016 30.3195L47.5187 30.3338ZM14.0749 24.5641L14.4918 24.1564L14.4894 24.154L14.0749 24.5641ZM18.7075 29.302L19.1271 28.8971L19.1244 28.8943L18.7075 29.302ZM18.6738 32.2711L18.2695 31.8508L18.2641 31.8561L18.6738 32.2711ZM15.6963 32.25L15.2806 32.659L15.2818 32.6602L15.6963 32.25ZM14.6813 31.2182L15.097 30.8093L14.0623 29.7574L14.0984 31.2325L14.6813 31.2182ZM43.3277 42.0206L42.8911 41.6341L42.8885 41.6371L43.3277 42.0206ZM46.2989 41.8311L45.9113 42.2669L45.9168 42.2716L46.2989 41.8311ZM46.4968 44.8002L46.9351 45.1849L46.938 45.1815L46.4968 44.8002ZM10.4677 31.1972L11.0508 31.1859L11.0237 29.7907L10.05 30.7903L10.4677 31.1972ZM9.44226 32.25L9.85672 32.6602L9.85998 32.6569L9.44226 32.25ZM6.46475 32.2711L6.87448 31.8561L6.86902 31.8509L6.46475 32.2711ZM6.43106 29.302L6.01411 28.8943L6.01145 28.8971L6.43106 29.302ZM11.0637 24.5641L10.6492 24.154L10.6467 24.1564L11.0637 24.5641ZM31.1003 13.347C26.0757 13.347 21.5533 15.5744 18.433 19.1478L19.3115 19.9149C22.2221 16.5815 26.43 14.5132 31.1003 14.5132V13.347ZM18.4357 19.1448C17.8787 19.7739 16.9164 19.8435 16.2886 19.2851L15.5135 20.1566C16.6378 21.1565 18.3371 21.0154 19.3089 19.9179L18.4357 19.1448ZM16.2832 19.2804C15.6566 18.7368 15.5865 17.7785 16.1443 17.1331L15.262 16.3705C14.291 17.4939 14.3978 19.1888 15.519 20.1613L16.2832 19.2804ZM16.1413 17.1365C19.809 12.9589 25.1486 10.3018 31.1003 10.3018V9.1355C24.7923 9.1355 19.14 11.9532 15.2649 16.3671L16.1413 17.1365ZM31.1003 10.3018C42.0711 10.3018 50.934 19.2785 51.1492 30.3661L52.3153 30.3435C52.0882 18.6471 42.7324 9.1355 31.1003 9.1355V10.3018ZM52.15 30.7617L53.1755 29.7088L52.34 28.8951L51.3145 29.948L52.15 30.7617ZM53.1722 29.7121C53.7617 29.1165 54.7259 29.1038 55.3255 29.6958L56.1449 28.8659C55.0811 27.8155 53.3793 27.845 52.3433 28.8917L53.1722 29.7121ZM55.331 29.7011C55.9246 30.2722 55.9439 31.229 55.3493 31.8451L56.1885 32.6549C57.2196 31.5864 57.2094 29.8899 56.1395 28.8607L55.331 29.7011ZM55.352 31.8423L50.7194 36.5802L51.5533 37.3955L56.1859 32.6576L55.352 31.8423ZM50.7218 36.5777C50.4334 36.8692 50.0385 37.0365 49.6307 37.0365V38.2027C50.3558 38.2027 51.0475 37.9067 51.5508 37.398L50.7218 36.5777ZM49.6307 37.0365C49.2229 37.0365 48.828 36.8692 48.5396 36.5777L47.7106 37.398C48.214 37.9067 48.9057 38.2027 49.6307 38.2027V37.0365ZM48.5421 36.5802L43.9094 31.8423L43.0756 32.6576L47.7082 37.3955L48.5421 36.5802ZM43.9121 31.8451C43.3176 31.229 43.3368 30.2722 43.9305 29.7011L43.1219 28.8607C42.052 29.8899 42.0418 31.5864 43.0729 32.6549L43.9121 31.8451ZM43.9359 29.6958C44.5356 29.1038 45.4997 29.1165 46.0893 29.7121L46.9182 28.8917C45.8821 27.845 44.1804 27.8155 43.1165 28.8659L43.9359 29.6958ZM46.088 29.7109L47.103 30.7427L47.9344 29.9248L46.9194 28.893L46.088 29.7109ZM48.1016 30.3195C47.871 20.8762 40.3148 13.347 31.1003 13.347V14.5132C39.6581 14.5132 46.7199 21.5135 46.9357 30.348L48.1016 30.3195ZM12.5693 24.5155C12.9771 24.5155 13.372 24.6828 13.6604 24.9742L14.4894 24.154C13.986 23.6453 13.2943 23.3493 12.5693 23.3493V24.5155ZM13.6579 24.9718L18.2905 29.7097L19.1244 28.8943L14.4918 24.1564L13.6579 24.9718ZM18.2879 29.7069C18.8824 30.323 18.8632 31.2798 18.2695 31.8509L19.0781 32.6913C20.1479 31.6621 20.1582 29.9656 19.1271 28.8971L18.2879 29.7069ZM18.2641 31.8561C17.6644 32.4482 16.7003 32.4355 16.1107 31.8398L15.2818 32.6602C16.3179 33.707 18.0196 33.7364 19.0835 32.686L18.2641 31.8561ZM16.112 31.8411L15.097 30.8093L14.2656 31.6271L15.2806 32.659L16.112 31.8411ZM14.0984 31.2325C14.329 40.6758 21.8852 48.205 31.0997 48.205V47.0388C22.5419 47.0388 15.48 40.0384 15.2643 31.204L14.0984 31.2325ZM31.0997 48.205C36.1243 48.205 40.6467 45.9776 43.767 42.4042L42.8885 41.6371C39.9779 44.9705 35.77 47.0388 31.0997 47.0388V48.205ZM43.7643 42.4072C44.3213 41.778 45.2836 41.7085 45.9114 42.2668L46.6864 41.3954C45.5622 40.3955 43.8629 40.5365 42.8911 41.6341L43.7643 42.4072ZM45.9168 42.2716C46.5434 42.8152 46.6135 43.7735 46.0557 44.4189L46.938 45.1815C47.909 44.0581 47.8021 42.3632 46.681 41.3906L45.9168 42.2716ZM46.0586 44.4155C42.391 48.5931 37.0514 51.2502 31.0997 51.2502V52.4165C37.4077 52.4165 43.06 49.5987 46.935 45.1849L46.0586 44.4155ZM31.0997 51.2502C20.1289 51.2502 11.266 42.2735 11.0508 31.1859L9.88474 31.2085C10.1117 42.9049 19.4676 52.4165 31.0997 52.4165V51.2502ZM10.05 30.7903L9.02453 31.8432L9.85998 32.6569L10.8855 31.604L10.05 30.7903ZM9.02781 31.8398C8.43824 32.4355 7.47411 32.4482 6.87445 31.8561L6.05506 32.686C7.11892 33.7364 8.82065 33.707 9.85671 32.6602L9.02781 31.8398ZM6.86902 31.8509C6.27537 31.2798 6.25613 30.323 6.85067 29.7069L6.01145 28.8971C4.98037 29.9656 4.9906 31.6621 6.06048 32.6913L6.86902 31.8509ZM6.848 29.7097L11.4806 24.9718L10.6467 24.1564L6.01412 28.8943L6.848 29.7097ZM11.4782 24.9742C11.7666 24.6828 12.1614 24.5155 12.5693 24.5155V23.3493C11.8442 23.3493 11.1525 23.6453 10.6492 24.154L11.4782 24.9742Z" fill="#5E8BCE" mask="url(#path-1-inside-1)"/>
</svg>
