<svg width="82" height="100" viewBox="0 0 82 100" fill="none" xmlns="http://www.w3.org/2000/svg">
<path d="M8.62358 17.7514C7.37358 17.7514 6.3911 17.2756 5.67614 16.3238C4.96591 15.3674 4.6108 14.063 4.6108 12.4105C4.6108 10.7675 4.96828 9.47016 5.68324 8.51845C6.3982 7.56675 7.37831 7.09089 8.62358 7.09089C9.86884 7.09089 10.8466 7.56675 11.5568 8.51845C12.267 9.46542 12.6222 10.7604 12.6222 12.4034C12.6222 14.0511 12.267 15.3556 11.5568 16.3167C10.8466 17.2732 9.86884 17.7514 8.62358 17.7514ZM8.62358 16.2528C9.30066 16.2528 9.82623 15.9143 10.2003 15.2372C10.5791 14.5601 10.7685 13.6179 10.7685 12.4105C10.7685 11.2126 10.5791 10.2774 10.2003 9.6051C9.8215 8.92802 9.29593 8.58947 8.62358 8.58947C7.95123 8.58947 7.42093 8.92802 7.03267 9.6051C6.64915 10.2822 6.45739 11.2149 6.45739 12.4034C6.45739 13.6108 6.64678 14.5554 7.02557 15.2372C7.40909 15.9143 7.94176 16.2528 8.62358 16.2528ZM13.794 10.3366C13.794 9.38966 14.1349 8.61315 14.8168 8.00709C15.4986 7.39629 16.3698 7.09089 17.4304 7.09089C18.4484 7.09089 19.2865 7.36788 19.9446 7.92186C20.6075 8.47584 20.9389 9.16949 20.9389 10.0028C20.9389 10.5757 20.7779 11.1179 20.456 11.6292C20.1387 12.1359 19.6108 12.7609 18.8722 13.5042L16.3366 16.0113V16.0469H21.0952V17.5454H13.8935V16.3096L17.6648 12.5596C18.2472 11.9631 18.6402 11.4967 18.8438 11.1605C19.0473 10.8243 19.1491 10.4645 19.1491 10.081C19.1491 9.65482 18.9787 9.29497 18.6378 9.00141C18.3016 8.70785 17.8802 8.56107 17.3736 8.56107C16.8385 8.56107 16.3935 8.72915 16.0384 9.06533C15.688 9.4015 15.5128 9.8229 15.5128 10.3295V10.3579H13.794V10.3366Z" fill="#4F4F4F"/>
<path d="M66.1889 64.9339L62.7004 64.6576C62.3568 63.5925 61.9312 62.5511 61.4303 61.5492L63.7463 58.8883C65.1677 57.2552 65.0819 54.7767 63.551 53.2457L59.9265 49.6212C58.4106 48.1054 55.9457 48.008 54.3149 49.3994L51.6525 51.671C50.6562 51.1602 49.619 50.7243 48.5568 50.3696L48.3129 46.8517C48.163 44.6919 46.3498 43 44.1848 43H39.0588C36.915 43 35.1032 44.674 34.9339 46.8111L34.6576 50.2995C33.5197 50.6665 32.4107 51.1261 31.3478 51.671L28.6852 49.3994C27.0544 48.008 24.5895 48.1054 23.0736 49.6212L19.4491 53.2459C17.9181 54.7768 17.8324 57.2553 19.2537 58.8884L21.5697 61.5493C21.0688 62.5511 20.6432 63.5925 20.2996 64.6577L16.8111 64.934C14.674 65.1032 13 66.9151 13 69.0588V74.1848C13 76.3498 14.692 78.163 16.8517 78.3127L20.3695 78.5564C20.7242 79.6188 21.1602 80.656 21.671 81.6522L19.3994 84.3146C18.008 85.9455 18.1055 88.4104 19.6212 89.9263L23.2457 93.5508C24.7766 95.0816 27.2551 95.1675 28.8883 93.746C29.2444 93.4361 29.2818 92.896 28.9719 92.5398C28.6619 92.1835 28.1217 92.1462 27.7657 92.4562C26.8072 93.2903 25.3532 93.2398 24.4549 92.3416L20.8304 88.7171C19.941 87.8277 19.8838 86.3813 20.7001 85.4245L23.3488 82.3202C23.5791 82.0503 23.6188 81.6661 23.4485 81.3548C22.7782 80.1298 22.2322 78.8311 21.8255 77.4946C21.7223 77.1554 21.4204 76.915 21.0667 76.8905L16.97 76.6066C15.7027 76.5188 14.71 75.4548 14.71 74.1846V69.0586C14.71 67.8008 15.6922 66.7376 16.9461 66.6383L21.0133 66.3161C21.3669 66.2881 21.6664 66.0447 21.7662 65.7044C22.159 64.365 22.6918 63.061 23.3501 61.8284C23.5172 61.5154 23.4738 61.1319 23.2409 60.8643L20.5436 57.7658C19.7095 56.8076 19.76 55.3533 20.6582 54.455L24.2828 50.8305C25.1723 49.9411 26.6185 49.8839 27.5754 50.7003L30.6798 53.349C30.9497 53.5793 31.334 53.6189 31.6451 53.4486C32.9307 52.7451 34.2966 52.1791 35.7046 51.7663C36.045 51.6666 36.2884 51.3669 36.3165 51.0133L36.6386 46.9461C36.7379 45.6922 37.801 44.71 39.0589 44.71H44.1849C45.4552 44.71 46.5191 45.7027 46.607 46.97L46.8908 51.0667C46.9153 51.4204 47.1557 51.7223 47.4949 51.8255C48.8314 52.2322 50.1303 52.7783 51.3551 53.4485C51.6663 53.6188 52.0505 53.5792 52.3205 53.3488L55.4248 50.7002C56.3817 49.8838 57.8279 49.941 58.7174 50.8304L62.342 54.4549C63.2402 55.3532 63.2906 56.8075 62.4565 57.7657L59.7594 60.8645C59.5265 61.1321 59.4829 61.5156 59.65 61.8286C60.3083 63.0612 60.8411 64.3653 61.2339 65.7046C61.3337 66.0449 61.6332 66.2883 61.9868 66.3163L66.054 66.6385C67.3079 66.7378 68.2901 67.8009 68.2901 69.0588V74.1848C68.2901 75.455 67.2974 76.519 66.03 76.6068L61.9333 76.8907C61.5796 76.9152 61.2777 77.1556 61.1745 77.4948C60.7678 78.8313 60.2218 80.1302 59.5515 81.355C59.3812 81.6664 59.4208 82.0505 59.6512 82.3204L62.2999 85.4246C63.1162 86.3815 63.059 87.8278 62.1697 88.7172L58.5451 92.3417C57.6469 93.24 56.1927 93.2904 55.2344 92.4563L52.1356 89.7591C51.868 89.5262 51.4845 89.4828 51.1715 89.6498C49.9998 90.2756 48.7629 90.7885 47.4949 91.1742C47.1557 91.2776 46.9153 91.5794 46.8908 91.9331L46.607 96.0298C46.5191 97.2971 45.4552 98.2899 44.1849 98.2899H39.0589C37.8011 98.2899 36.7379 97.3076 36.6386 96.0538L36.3165 91.9866C36.2884 91.633 36.045 91.3334 35.7047 91.2337C34.3651 90.8408 33.0611 90.3081 31.8287 89.6498C31.4122 89.4275 30.8941 89.5847 30.6717 90.0012C30.4492 90.4178 30.6065 90.9358 31.023 91.1582C32.1844 91.7783 33.4046 92.2959 34.6574 92.7003L34.9338 96.1888C35.1032 98.326 36.9151 100 39.0588 100H44.1848C46.3498 100 48.163 98.308 48.3127 96.1482L48.5565 92.6304C49.5465 92.2998 50.5159 91.8978 51.4507 91.4303L54.1116 93.7463C55.7447 95.1678 58.2233 95.082 59.7541 93.551L63.3786 89.9265C64.8945 88.4106 64.9919 85.9457 63.6005 84.3149L61.3288 81.6525C61.8395 80.6562 62.2756 79.6189 62.6303 78.5566L66.148 78.3129C68.308 78.163 70 76.3498 70 74.1848V69.0588C70 66.9151 68.326 65.1032 66.1889 64.9339Z" fill="#5E8BCE"/>
<path d="M47.1313 61.9104C46.7244 61.6709 46.2003 61.8068 45.9608 62.2138C45.7213 62.6207 45.8571 63.1448 46.2642 63.3843C49.1294 65.0701 50.9093 68.18 50.9093 71.5002C50.9093 76.6884 46.6883 80.9094 41.5001 80.9094C36.3119 80.9094 32.0909 76.6883 32.0909 71.5001C32.0909 66.3119 36.3118 62.0909 41.5001 62.0909C41.9722 62.0909 42.3551 61.7081 42.3551 61.2359C42.3551 60.7636 41.9722 60.3809 41.5001 60.3809C35.3689 60.3809 30.3809 65.3689 30.3809 71.5001C30.3809 77.6313 35.3689 82.6193 41.5001 82.6193C47.6313 82.6193 52.6193 77.6313 52.6193 71.5001C52.6193 67.5767 50.5164 63.9021 47.1313 61.9104Z" fill="#5E8BCE"/>
</svg>
