<svg width="82" height="100" viewBox="0 0 82 100" fill="none" xmlns="http://www.w3.org/2000/svg">
<path d="M6.62358 17.7514C5.37358 17.7514 4.3911 17.2756 3.67614 16.3239C2.96591 15.3674 2.6108 14.063 2.6108 12.4105C2.6108 10.7675 2.96828 9.47019 3.68324 8.51848C4.3982 7.56678 5.37831 7.09093 6.62358 7.09093C7.86884 7.09093 8.84659 7.56678 9.55682 8.51848C10.267 9.46545 10.6222 10.7604 10.6222 12.4034C10.6222 14.0512 10.267 15.3556 9.55682 16.3168C8.84659 17.2732 7.86884 17.7514 6.62358 17.7514ZM6.62358 16.2529C7.30066 16.2529 7.82623 15.9143 8.20028 15.2372C8.57907 14.5601 8.76847 13.6179 8.76847 12.4105C8.76847 11.2126 8.57907 10.2775 8.20028 9.60513C7.8215 8.92805 7.29593 8.58951 6.62358 8.58951C5.95123 8.58951 5.42093 8.92805 5.03267 9.60513C4.64915 10.2822 4.45739 11.215 4.45739 12.4034C4.45739 13.6108 4.64678 14.5554 5.02557 15.2372C5.40909 15.9143 5.94176 16.2529 6.62358 16.2529ZM14.3438 12.9787V11.6009H15.5795C16.1051 11.6009 16.5313 11.4565 16.858 11.1676C17.1847 10.8741 17.348 10.4976 17.348 10.0384C17.348 9.58382 17.1918 9.22161 16.8793 8.95172C16.5715 8.68183 16.1359 8.54689 15.5724 8.54689C15.0469 8.54689 14.6184 8.6913 14.2869 8.98013C13.9555 9.26422 13.7708 9.64538 13.733 10.1236H12.0284C12.0805 9.2003 12.4332 8.46403 13.0866 7.91479C13.7448 7.36555 14.6018 7.09093 15.6577 7.09093C16.6709 7.09093 17.4995 7.34187 18.1435 7.84377C18.7874 8.34566 19.1094 8.99433 19.1094 9.78979C19.1094 10.4195 18.9152 10.9522 18.527 11.3878C18.1435 11.8187 17.6321 12.0886 16.9929 12.1975V12.2401C17.7647 12.2969 18.3778 12.5478 18.8324 12.9929C19.2917 13.4333 19.5213 14.0085 19.5213 14.7188C19.5213 15.6184 19.1544 16.3499 18.4205 16.9134C17.6913 17.4721 16.7633 17.7514 15.6364 17.7514C14.5189 17.7514 13.617 17.4721 12.9304 16.9134C12.2438 16.3499 11.8769 15.6089 11.8295 14.6904H13.5767C13.6193 15.1638 13.8253 15.5426 14.1946 15.8267C14.5639 16.1108 15.0492 16.2529 15.6506 16.2529C16.2424 16.2529 16.7254 16.1037 17.0994 15.8054C17.4735 15.5071 17.6605 15.1212 17.6605 14.6477C17.6605 14.1316 17.4759 13.7244 17.1065 13.4262C16.742 13.1279 16.2424 12.9787 15.608 12.9787H14.3438Z" fill="#4F4F4F"/>
<g clip-path="url(#clip0)">
<mask id="path-2-inside-1" fill="white">
<path fill-rule="evenodd" clip-rule="evenodd" d="M37.5068 44.4114C32.3351 44.4114 28.1425 48.6039 28.1425 53.7757V59.8018H46.8711V53.7757C46.8711 48.6039 42.6786 44.4114 37.5068 44.4114ZM49.2122 59.8018V53.7757C49.2122 47.311 43.9715 42.0703 37.5068 42.0703C31.0421 42.0703 25.8015 47.311 25.8015 53.7757V59.8018H20.0951C18.1557 59.8018 16.5835 61.374 16.5835 63.3134V91.5613C16.5835 93.5007 18.1557 95.0729 20.0951 95.0729H54.9185C56.858 95.0729 58.4301 93.5007 58.4301 91.5613V63.3134C58.4301 61.374 56.8579 59.8018 54.9185 59.8018H49.2122ZM20.0951 62.1429C19.4486 62.1429 18.9246 62.667 18.9246 63.3134V91.5613C18.9246 92.2077 19.4486 92.7318 20.0951 92.7318H54.9185C55.565 92.7318 56.0891 92.2077 56.0891 91.5613V63.3134C56.0891 62.667 55.565 62.1429 54.9185 62.1429H48.0416H26.972H20.0951Z"/>
</mask>
<path fill-rule="evenodd" clip-rule="evenodd" d="M37.5068 44.4114C32.3351 44.4114 28.1425 48.6039 28.1425 53.7757V59.8018H46.8711V53.7757C46.8711 48.6039 42.6786 44.4114 37.5068 44.4114ZM49.2122 59.8018V53.7757C49.2122 47.311 43.9715 42.0703 37.5068 42.0703C31.0421 42.0703 25.8015 47.311 25.8015 53.7757V59.8018H20.0951C18.1557 59.8018 16.5835 61.374 16.5835 63.3134V91.5613C16.5835 93.5007 18.1557 95.0729 20.0951 95.0729H54.9185C56.858 95.0729 58.4301 93.5007 58.4301 91.5613V63.3134C58.4301 61.374 56.8579 59.8018 54.9185 59.8018H49.2122ZM20.0951 62.1429C19.4486 62.1429 18.9246 62.667 18.9246 63.3134V91.5613C18.9246 92.2077 19.4486 92.7318 20.0951 92.7318H54.9185C55.565 92.7318 56.0891 92.2077 56.0891 91.5613V63.3134C56.0891 62.667 55.565 62.1429 54.9185 62.1429H48.0416H26.972H20.0951Z" fill="#5E8BCE"/>
<path d="M28.1425 59.8018H27.9425V60.0018H28.1425V59.8018ZM46.8711 59.8018V60.0018H47.0711V59.8018H46.8711ZM49.2122 59.8018H49.0122V60.0018H49.2122V59.8018ZM25.8015 59.8018V60.0018H26.0015V59.8018H25.8015ZM28.3425 53.7757C28.3425 48.7144 32.4455 44.6114 37.5068 44.6114V44.2114C32.2246 44.2114 27.9425 48.4935 27.9425 53.7757H28.3425ZM28.3425 59.8018V53.7757H27.9425V59.8018H28.3425ZM46.8711 59.6018H28.1425V60.0018H46.8711V59.6018ZM46.6711 53.7757V59.8018H47.0711V53.7757H46.6711ZM37.5068 44.6114C42.5681 44.6114 46.6711 48.7144 46.6711 53.7757H47.0711C47.0711 48.4935 42.789 44.2114 37.5068 44.2114V44.6114ZM49.4122 59.8018V53.7757H49.0122V59.8018H49.4122ZM49.4122 53.7757C49.4122 47.2005 44.082 41.8703 37.5068 41.8703V42.2703C43.8611 42.2703 49.0122 47.4214 49.0122 53.7757H49.4122ZM37.5068 41.8703C30.9317 41.8703 25.6015 47.2005 25.6015 53.7757H26.0015C26.0015 47.4214 31.1526 42.2703 37.5068 42.2703V41.8703ZM25.6015 53.7757V59.8018H26.0015V53.7757H25.6015ZM25.8015 59.6018H20.0951V60.0018H25.8015V59.6018ZM20.0951 59.6018C18.0452 59.6018 16.3835 61.2636 16.3835 63.3134H16.7835C16.7835 61.4845 18.2662 60.0018 20.0951 60.0018V59.6018ZM16.3835 63.3134V91.5613H16.7835V63.3134H16.3835ZM16.3835 91.5613C16.3835 93.6111 18.0452 95.2729 20.0951 95.2729V94.8729C18.2662 94.8729 16.7835 93.3902 16.7835 91.5613H16.3835ZM20.0951 95.2729H54.9185V94.8729H20.0951V95.2729ZM54.9185 95.2729C56.9684 95.2729 58.6301 93.6111 58.6301 91.5613H58.2301C58.2301 93.3902 56.7475 94.8729 54.9185 94.8729V95.2729ZM58.6301 91.5613V63.3134H58.2301V91.5613H58.6301ZM58.6301 63.3134C58.6301 61.2636 56.9684 59.6018 54.9185 59.6018V60.0018C56.7475 60.0018 58.2301 61.4845 58.2301 63.3134H58.6301ZM54.9185 59.6018H49.2122V60.0018H54.9185V59.6018ZM19.1246 63.3134C19.1246 62.7774 19.5591 62.3429 20.0951 62.3429V61.9429C19.3382 61.9429 18.7246 62.5565 18.7246 63.3134H19.1246ZM19.1246 91.5613V63.3134H18.7246V91.5613H19.1246ZM20.0951 92.5318C19.5591 92.5318 19.1246 92.0973 19.1246 91.5613H18.7246C18.7246 92.3182 19.3382 92.9318 20.0951 92.9318V92.5318ZM54.9185 92.5318H20.0951V92.9318H54.9185V92.5318ZM55.8891 91.5613C55.8891 92.0973 55.4545 92.5318 54.9185 92.5318V92.9318C55.6755 92.9318 56.2891 92.3182 56.2891 91.5613H55.8891ZM55.8891 63.3134V91.5613H56.2891V63.3134H55.8891ZM54.9185 62.3429C55.4546 62.3429 55.8891 62.7774 55.8891 63.3134H56.2891C56.2891 62.5565 55.6755 61.9429 54.9185 61.9429V62.3429ZM48.0416 62.3429H54.9185V61.9429H48.0416V62.3429ZM26.972 62.3429H48.0416V61.9429H26.972V62.3429ZM20.0951 62.3429H26.972V61.9429H20.0951V62.3429Z" fill="white" mask="url(#path-2-inside-1)"/>
<line x1="26.9651" y1="69.0999" x2="48.3401" y2="69.0999" stroke="#5E8BCE" stroke-width="2.03571" stroke-linecap="round"/>
</g>
<defs>
<clipPath id="clip0">
<rect width="57" height="57" fill="white" transform="translate(9 39)"/>
</clipPath>
</defs>
</svg>
