<svg width="82" height="100" viewBox="0 0 82 100" fill="none" xmlns="http://www.w3.org/2000/svg">
<g clip-path="url(#clip0)">
<path fill-rule="evenodd" clip-rule="evenodd" d="M51.7586 43H72.1263C73.2284 43.0034 74.2845 43.4428 75.0638 44.2221C75.8431 45.0015 76.2825 46.0575 76.2859 47.1596V96.2141C76.2825 97.3163 75.8431 98.3723 75.0638 99.1516C74.2845 99.931 73.2284 100.37 72.1263 100.374H51.7586C50.6565 100.37 49.6005 99.931 48.8211 99.1516C48.0418 98.3723 47.6025 97.3163 47.599 96.2141V96.0017H48.903V96.2141C48.903 96.9715 49.2038 97.6978 49.7394 98.2334C50.2749 98.7689 51.0013 99.0698 51.7586 99.0698H72.1263C72.8837 99.0698 73.61 98.7689 74.1456 98.2334C74.6811 97.6978 74.982 96.9715 74.982 96.2141V47.1596C74.982 46.7846 74.9081 46.4133 74.7646 46.0668C74.6211 45.7203 74.4107 45.4055 74.1456 45.1404C73.8804 44.8752 73.5656 44.6648 73.2191 44.5213C72.8727 44.3778 72.5013 44.304 72.1263 44.304H69.1142C68.9413 44.304 68.7754 44.3726 68.6532 44.4949C68.5309 44.6172 68.4622 44.783 68.4622 44.9559V45.6079C68.4622 45.9537 68.3248 46.2854 68.0803 46.5299C67.8358 46.7745 67.5041 46.9118 67.1583 46.9118H56.7267C56.3808 46.9118 56.0492 46.7745 55.8046 46.5299C55.5601 46.2854 55.4227 45.9537 55.4227 45.6079V44.9559C55.4227 44.783 55.354 44.6172 55.2318 44.4949C55.1095 44.3726 54.9437 44.304 54.7707 44.304H51.7586C51.0013 44.304 50.2749 44.6048 49.7394 45.1404C49.2038 45.6759 48.903 46.4022 48.903 47.1596V58.7241H47.599V47.1596C47.6025 46.0575 48.0418 45.0015 48.8211 44.2221C49.6005 43.4428 50.6565 43.0034 51.7586 43ZM64.8937 44.5721C64.823 44.5248 64.7398 44.4995 64.6547 44.4995C64.5406 44.4995 64.4311 44.5449 64.3504 44.6256C64.2697 44.7063 64.2244 44.8157 64.2244 44.9298C64.2244 45.015 64.2496 45.0981 64.2969 45.1689C64.3442 45.2397 64.4114 45.2948 64.49 45.3274C64.5686 45.36 64.6552 45.3685 64.7386 45.3519C64.8221 45.3353 64.8988 45.2943 64.9589 45.2341C65.0191 45.1739 65.0601 45.0973 65.0767 45.0138C65.0933 44.9303 65.0848 44.8438 65.0522 44.7652C65.0197 44.6865 64.9645 44.6193 64.8937 44.5721ZM63.2464 44.5908H60.6385C60.5521 44.5908 60.4691 44.6252 60.408 44.6863C60.3469 44.7474 60.3125 44.8304 60.3125 44.9168C60.3125 45.0033 60.3469 45.0862 60.408 45.1473C60.4691 45.2084 60.5521 45.2428 60.6385 45.2428H63.2464C63.3329 45.2428 63.4158 45.2084 63.4769 45.1473C63.5381 45.0862 63.5724 45.0033 63.5724 44.9168C63.5724 44.8304 63.5381 44.7474 63.4769 44.6863C63.4158 44.6252 63.3329 44.5908 63.2464 44.5908Z" fill="#5E8BCE"/>
<path d="M17.1628 95.7383C17.1618 95.7383 17.1602 95.7384 17.1581 95.7384C17.1472 95.7386 17.1293 95.7387 17.1037 95.7387C17.0529 95.7386 16.9773 95.7381 16.8789 95.7369C16.6823 95.7346 16.3975 95.7302 16.0444 95.7237C15.3384 95.7106 14.3606 95.6892 13.2724 95.6597C11.0945 95.6007 8.47938 95.5096 6.71377 95.3899L6.69616 95.6496L6.71375 95.3899C4.97641 95.2722 3.40259 94.7905 2.2604 94.336C1.69005 94.1091 1.22929 93.8897 0.911915 93.7275C0.753275 93.6465 0.630596 93.5798 0.548112 93.5336C0.525601 93.521 0.506088 93.51 0.489658 93.5006H6.90326H7.16352V93.2403V60.795C7.16352 60.1507 7.33187 59.7099 7.6156 59.4287C7.89975 59.1471 8.34118 58.9843 8.97423 58.9843H62.8196C63.4478 58.9843 63.8903 59.1576 64.1765 59.4467C64.4632 59.7362 64.6304 60.1794 64.6304 60.795V93.2403V93.5006H64.8906H70.9937C70.9772 93.5101 70.9576 93.5212 70.9349 93.5339C70.8524 93.5801 70.7298 93.647 70.5711 93.7282C70.2538 93.8907 69.793 94.1104 69.2227 94.3376C68.0806 94.7926 66.5069 95.2742 64.7698 95.3899C63.0043 95.5075 60.0448 95.5944 57.5222 95.6519C56.2619 95.6806 55.1122 95.7019 54.2776 95.7161C53.8603 95.7232 53.5218 95.7285 53.2876 95.732L53.0178 95.736L52.9476 95.7369L52.9298 95.7372L52.9272 95.7372L52.9253 95.7372L52.9241 95.7373L52.9239 95.7373L35.0215 95.7414V95.7414C35.0215 95.7414 35.0215 95.7414 35.0215 95.7414H35.0209H35.0185L35.0088 95.7414L34.9706 95.7414L34.8214 95.7413L34.2554 95.741L32.2349 95.7402L26.1037 95.7378C23.8741 95.737 21.6444 95.7363 19.972 95.7361C19.1357 95.736 18.4388 95.7361 17.9508 95.7362L17.384 95.7366L17.2342 95.7369L17.1949 95.7371L17.1832 95.7372L17.177 95.7373L17.1691 95.7376C17.1628 95.7381 17.0685 95.7686 16.9903 95.8326C17.0224 95.7988 17.059 95.7694 17.0759 95.7606C17.0895 95.7549 17.1119 95.7474 17.1204 95.7451C17.1353 95.7414 17.1472 95.7399 17.1501 95.7396C17.1548 95.739 17.1585 95.7387 17.1601 95.7386L17.1628 95.7383ZM17.1628 95.7383C17.1646 95.7383 17.1648 95.7383 17.1639 95.7383L17.1628 95.7383ZM9.66456 61.2251H9.4043V61.4854V93.2403V93.5006H9.66456H62.1293H62.3896V93.2403V61.4854V61.2251H62.1293H9.66456Z" fill="#5E8BCE" stroke="white" stroke-width="0.520528"/>
<path d="M8.62358 17.7514C7.37358 17.7514 6.3911 17.2756 5.67614 16.3238C4.96591 15.3674 4.6108 14.063 4.6108 12.4105C4.6108 10.7675 4.96828 9.47016 5.68324 8.51845C6.3982 7.56675 7.37831 7.09089 8.62358 7.09089C9.86884 7.09089 10.8466 7.56675 11.5568 8.51845C12.267 9.46542 12.6222 10.7604 12.6222 12.4034C12.6222 14.0511 12.267 15.3556 11.5568 16.3167C10.8466 17.2732 9.86884 17.7514 8.62358 17.7514ZM8.62358 16.2528C9.30066 16.2528 9.82623 15.9143 10.2003 15.2372C10.5791 14.5601 10.7685 13.6179 10.7685 12.4105C10.7685 11.2126 10.5791 10.2774 10.2003 9.6051C9.8215 8.92802 9.29593 8.58947 8.62358 8.58947C7.95123 8.58947 7.42093 8.92802 7.03267 9.6051C6.64915 10.2822 6.45739 11.2149 6.45739 12.4034C6.45739 13.6108 6.64678 14.5554 7.02557 15.2372C7.40909 15.9143 7.94176 16.2528 8.62358 16.2528ZM16.4787 17.5454V9.04402H16.4361L13.7869 10.9048V9.17896L16.4645 7.29686H18.2756V17.5454H16.4787Z" fill="#4F4F4F"/>
</g>
<defs>
<clipPath id="clip0">
<rect width="81.8182" height="100" fill="white"/>
</clipPath>
</defs>
</svg>
