<svg width="33" height="32" viewBox="0 0 33 32" fill="none" xmlns="http://www.w3.org/2000/svg">
<mask id="path-1-inside-1" fill="white">
<path fill-rule="evenodd" clip-rule="evenodd" d="M16.1606 7.16668C13.6668 7.16668 11.421 8.27168 9.86966 10.0484C9.47641 10.4925 8.79174 10.5467 8.34107 10.1459C7.89149 9.75586 7.84599 9.07335 8.23924 8.61835C10.1795 6.40834 13.007 5 16.1606 5C21.9749 5 26.6614 9.75586 26.7752 15.6167L27.3028 15.0751C27.7209 14.6525 28.4067 14.6417 28.8346 15.0642C29.2625 15.4759 29.2701 16.1584 28.8519 16.5917L26.4686 19.0292C26.2649 19.2351 25.9854 19.3542 25.694 19.3542C25.4026 19.3542 25.1231 19.2351 24.9194 19.0292L22.5361 16.5917C22.1179 16.1584 22.1255 15.4759 22.5534 15.0642C22.9813 14.6417 23.6671 14.6525 24.0852 15.0751L24.6074 15.6059C24.4926 10.9042 20.7323 7.16668 16.1606 7.16668ZM6.62677 12.3125C6.91819 12.3125 7.19769 12.4317 7.40136 12.6375L9.78471 15.0751C10.2029 15.5084 10.1953 16.1909 9.76737 16.6026C9.33945 17.0251 8.6537 17.0142 8.23553 16.5917L7.71336 16.0609C7.8282 20.7626 11.5885 24.5001 16.1602 24.5001C18.654 24.5001 20.8998 23.3951 22.4511 21.6184C22.8444 21.1743 23.529 21.1201 23.9797 21.5209C24.4293 21.9109 24.4748 22.5934 24.0815 23.0484C22.1413 25.2584 19.3138 26.6668 16.1602 26.6668C10.3459 26.6668 5.65935 21.9109 5.5456 16.0501L5.01802 16.5917C4.59985 17.0142 3.91409 17.0251 3.48617 16.6026C3.05826 16.1909 3.05067 15.5084 3.46884 15.0751L5.85219 12.6375C6.05585 12.4317 6.33536 12.3125 6.62677 12.3125V12.3125Z"/>
</mask>
<path fill-rule="evenodd" clip-rule="evenodd" d="M16.1606 7.16668C13.6668 7.16668 11.421 8.27168 9.86966 10.0484C9.47641 10.4925 8.79174 10.5467 8.34107 10.1459C7.89149 9.75586 7.84599 9.07335 8.23924 8.61835C10.1795 6.40834 13.007 5 16.1606 5C21.9749 5 26.6614 9.75586 26.7752 15.6167L27.3028 15.0751C27.7209 14.6525 28.4067 14.6417 28.8346 15.0642C29.2625 15.4759 29.2701 16.1584 28.8519 16.5917L26.4686 19.0292C26.2649 19.2351 25.9854 19.3542 25.694 19.3542C25.4026 19.3542 25.1231 19.2351 24.9194 19.0292L22.5361 16.5917C22.1179 16.1584 22.1255 15.4759 22.5534 15.0642C22.9813 14.6417 23.6671 14.6525 24.0852 15.0751L24.6074 15.6059C24.4926 10.9042 20.7323 7.16668 16.1606 7.16668ZM6.62677 12.3125C6.91819 12.3125 7.19769 12.4317 7.40136 12.6375L9.78471 15.0751C10.2029 15.5084 10.1953 16.1909 9.76737 16.6026C9.33945 17.0251 8.6537 17.0142 8.23553 16.5917L7.71336 16.0609C7.8282 20.7626 11.5885 24.5001 16.1602 24.5001C18.654 24.5001 20.8998 23.3951 22.4511 21.6184C22.8444 21.1743 23.529 21.1201 23.9797 21.5209C24.4293 21.9109 24.4748 22.5934 24.0815 23.0484C22.1413 25.2584 19.3138 26.6668 16.1602 26.6668C10.3459 26.6668 5.65935 21.9109 5.5456 16.0501L5.01802 16.5917C4.59985 17.0142 3.91409 17.0251 3.48617 16.6026C3.05826 16.1909 3.05067 15.5084 3.46884 15.0751L5.85219 12.6375C6.05585 12.4317 6.33536 12.3125 6.62677 12.3125V12.3125Z" fill="#333333"/>
<path d="M9.86966 10.0484L10.0943 10.2472L10.0956 10.2457L9.86966 10.0484ZM8.34107 10.1459L8.54046 9.92168L8.53766 9.91924L8.34107 10.1459ZM8.23924 8.61835L8.01379 8.42042L8.01226 8.42218L8.23924 8.61835ZM26.7752 15.6167L26.4752 15.6225L26.4892 16.3403L26.9901 15.826L26.7752 15.6167ZM27.3028 15.0751L27.0895 14.864L27.0878 14.8657L27.3028 15.0751ZM28.8346 15.0642L28.6238 15.2777L28.6266 15.2804L28.8346 15.0642ZM28.8519 16.5917L29.0664 16.8015L29.0678 16.8L28.8519 16.5917ZM26.4686 19.0292L26.6818 19.2402L26.6831 19.239L26.4686 19.0292ZM24.9194 19.0292L24.7049 19.239L24.7062 19.2402L24.9194 19.0292ZM22.5361 16.5917L22.3202 16.8001L22.3216 16.8015L22.5361 16.5917ZM22.5534 15.0642L22.7614 15.2804L22.7642 15.2777L22.5534 15.0642ZM24.0852 15.0751L24.2991 14.8647L24.2985 14.864L24.0852 15.0751ZM24.6074 15.6059L24.3935 15.8163L24.9259 16.3574L24.9073 15.5986L24.6074 15.6059ZM7.40136 12.6375L7.61587 12.4278L7.61461 12.4265L7.40136 12.6375ZM9.78471 15.0751L10.0006 14.8667L9.99921 14.8653L9.78471 15.0751ZM9.76737 16.6026L9.55937 16.3864L9.5566 16.3891L9.76737 16.6026ZM8.23553 16.5917L8.02166 16.8021L8.02231 16.8028L8.23553 16.5917ZM7.71336 16.0609L7.92723 15.8505L7.39492 15.3094L7.41345 16.0682L7.71336 16.0609ZM22.4511 21.6184L22.2265 21.4196L22.2251 21.4211L22.4511 21.6184ZM23.9797 21.5209L23.7803 21.7451L23.7831 21.7475L23.9797 21.5209ZM24.0815 23.0484L24.307 23.2464L24.3085 23.2446L24.0815 23.0484ZM5.5456 16.0501L5.84555 16.0442L5.83161 15.3265L5.33069 15.8407L5.5456 16.0501ZM5.01802 16.5917L5.23125 16.8028L5.23292 16.8011L5.01802 16.5917ZM3.48617 16.6026L3.69697 16.3891L3.69416 16.3864L3.48617 16.6026ZM3.46884 15.0751L3.25433 14.8653L3.25296 14.8667L3.46884 15.0751ZM5.85219 12.6375L5.63893 12.4265L5.63768 12.4278L5.85219 12.6375ZM16.1606 6.86668C13.5756 6.86668 11.249 8.0126 9.64369 9.85104L10.0956 10.2457C11.5931 8.53076 13.7579 7.46668 16.1606 7.46668V6.86668ZM9.64505 9.84949C9.35848 10.1732 8.8634 10.2089 8.54045 9.9217L8.1417 10.37C8.72008 10.8845 9.59435 10.8119 10.0943 10.2472L9.64505 9.84949ZM8.53766 9.91924C8.21528 9.63959 8.17924 9.14656 8.46621 8.81452L8.01226 8.42218C7.51273 9.00015 7.5677 9.87213 8.14449 10.3725L8.53766 9.91924ZM8.46468 8.81628C10.3516 6.66704 13.0987 5.3 16.1606 5.3V4.7C12.9154 4.7 10.0074 6.14964 8.01379 8.42043L8.46468 8.81628ZM16.1606 5.3C21.8048 5.3 26.3645 9.91828 26.4752 15.6225L27.0751 15.6109C26.9583 9.59343 22.145 4.7 16.1606 4.7V5.3ZM26.9901 15.826L27.5177 15.2844L27.0878 14.8657L26.5603 15.4074L26.9901 15.826ZM27.516 15.2861C27.8193 14.9796 28.3153 14.9731 28.6238 15.2777L29.0454 14.8507C28.498 14.3103 27.6226 14.3255 27.0895 14.864L27.516 15.2861ZM28.6266 15.2804C28.932 15.5742 28.9419 16.0664 28.6361 16.3834L29.0678 16.8C29.5983 16.2503 29.593 15.3775 29.0426 14.848L28.6266 15.2804ZM28.6374 16.382L26.2541 18.8195L26.6831 19.239L29.0664 16.8015L28.6374 16.382ZM26.2553 18.8182C26.107 18.9682 25.9038 19.0542 25.694 19.0542V19.6542C26.067 19.6542 26.4229 19.502 26.6818 19.2402L26.2553 18.8182ZM25.694 19.0542C25.4842 19.0542 25.281 18.9682 25.1327 18.8182L24.7062 19.2402C24.9651 19.502 25.321 19.6542 25.694 19.6542V19.0542ZM25.1339 18.8195L22.7506 16.382L22.3216 16.8015L24.7049 19.239L25.1339 18.8195ZM22.7519 16.3834C22.4461 16.0664 22.456 15.5742 22.7614 15.2804L22.3454 14.848C21.795 15.3775 21.7897 16.2503 22.3202 16.8L22.7519 16.3834ZM22.7642 15.2777C23.0727 14.9731 23.5687 14.9796 23.872 15.2861L24.2985 14.864C23.7654 14.3255 22.8899 14.3103 22.3426 14.8507L22.7642 15.2777ZM23.8714 15.2854L24.3935 15.8163L24.8213 15.3955L24.2991 14.8647L23.8714 15.2854ZM24.9073 15.5986C24.7887 10.7402 20.9012 6.86668 16.1606 6.86668V7.46668C20.5634 7.46668 24.1965 11.0681 24.3075 15.6132L24.9073 15.5986ZM6.62677 12.6125C6.83659 12.6125 7.03973 12.6986 7.18811 12.8486L7.61461 12.4265C7.35565 12.1648 6.9998 12.0125 6.62677 12.0125V12.6125ZM7.18686 12.8473L9.5702 15.2848L9.99921 14.8653L7.61586 12.4278L7.18686 12.8473ZM9.56883 15.2834C9.8747 15.6003 9.8648 16.0926 9.55939 16.3864L9.97536 16.8188C10.5258 16.2892 10.531 15.4164 10.0006 14.8667L9.56883 15.2834ZM9.5566 16.3891C9.24809 16.6937 8.75207 16.6872 8.44875 16.3807L8.02231 16.8028C8.55533 17.3413 9.43082 17.3564 9.97815 16.816L9.5566 16.3891ZM8.4494 16.3814L7.92723 15.8505L7.49949 16.2713L8.02166 16.8021L8.4494 16.3814ZM7.41345 16.0682C7.53211 20.9265 11.4195 24.8001 16.1602 24.8001V24.2001C11.7574 24.2001 8.12428 20.5986 8.01327 16.0536L7.41345 16.0682ZM16.1602 24.8001C18.7451 24.8001 21.0718 23.6542 22.6771 21.8157L22.2251 21.4211C20.7277 23.136 18.5629 24.2001 16.1602 24.2001V24.8001ZM22.6757 21.8173C22.9623 21.4936 23.4574 21.4578 23.7803 21.7451L24.1791 21.2968C23.6007 20.7823 22.7264 20.8549 22.2265 21.4196L22.6757 21.8173ZM23.7831 21.7475C24.1055 22.0272 24.1415 22.5202 23.8546 22.8523L24.3085 23.2446C24.808 22.6666 24.7531 21.7947 24.1763 21.2943L23.7831 21.7475ZM23.8561 22.8505C21.9692 24.9997 19.2221 26.3668 16.1602 26.3668V26.9668C19.4054 26.9668 22.3134 25.5171 24.307 23.2464L23.8561 22.8505ZM16.1602 26.3668C10.516 26.3668 5.95626 21.7485 5.84555 16.0442L5.24566 16.0559C5.36245 22.0734 10.1758 26.9668 16.1602 26.9668V26.3668ZM5.33069 15.8407L4.80311 16.3824L5.23292 16.8011L5.76051 16.2594L5.33069 15.8407ZM4.80479 16.3807C4.50148 16.6872 4.00546 16.6937 3.69695 16.3891L3.2754 16.816C3.82273 17.3564 4.69822 17.3413 5.23124 16.8028L4.80479 16.3807ZM3.69416 16.3864C3.38875 16.0926 3.37884 15.6003 3.68472 15.2834L3.25296 14.8667C2.7225 15.4164 2.72777 16.2892 3.27819 16.8188L3.69416 16.3864ZM3.68334 15.2848L6.06669 12.8473L5.63768 12.4278L3.25434 14.8653L3.68334 15.2848ZM6.06544 12.8486C6.21381 12.6986 6.41696 12.6125 6.62677 12.6125V12.0125C6.25375 12.0125 5.8979 12.1648 5.63894 12.4265L6.06544 12.8486Z" fill="#F1F1F1" mask="url(#path-1-inside-1)"/>
</svg>
