<svg width="31" height="31" viewBox="0 0 31 31" fill="none" xmlns="http://www.w3.org/2000/svg">
<path fill-rule="evenodd" clip-rule="evenodd" d="M14.9375 3.01936C12.7284 3.01936 10.9375 4.81023 10.9375 7.01937V9.59347H18.9375V7.01936C18.9375 4.81022 17.1466 3.01936 14.9375 3.01936ZM19.9375 9.59347V7.01936C19.9375 4.25794 17.6989 2.01936 14.9375 2.01936C12.1761 2.01936 9.9375 4.25794 9.9375 7.01937V9.59347H7.5C6.67157 9.59347 6 10.265 6 11.0935V23.1597C6 23.9881 6.67157 24.6597 7.5 24.6597H22.375C23.2034 24.6597 23.875 23.9881 23.875 23.1597V11.0935C23.875 10.265 23.2034 9.59347 22.375 9.59347H19.9375ZM7.5 10.5935C7.22386 10.5935 7 10.8173 7 11.0935V23.1597C7 23.4358 7.22386 23.6597 7.5 23.6597H22.375C22.6511 23.6597 22.875 23.4358 22.875 23.1597V11.0935C22.875 10.8173 22.6511 10.5935 22.375 10.5935H19.4375H10.4375H7.5Z" fill="#2E2E2E"/>
<line x1="10.6" y1="13.4" x2="19.4" y2="13.4" stroke="#C4C4C4" stroke-width="1.2" stroke-linecap="round"/>
</svg>
