<svg width="27" height="27" viewBox="0 0 27 27" fill="none" xmlns="http://www.w3.org/2000/svg">
<path fill-rule="evenodd" clip-rule="evenodd" d="M13.0474 20.4139H14.3813C14.3813 20.4139 14.7815 20.3472 14.9816 20.1471C15.1817 19.9471 15.1817 19.5469 15.1817 19.5469C15.1817 19.5469 15.1817 17.8128 15.9821 17.546C16.7824 17.2792 17.8496 19.2801 18.9167 20.0137C19.7171 20.614 20.3173 20.4806 20.3173 20.4806L23.252 20.4139C23.252 20.4139 24.786 20.3472 24.0523 19.08C23.9856 19.0133 23.6521 18.2129 21.8513 16.5455C19.9838 14.8114 20.2506 15.1449 22.4516 12.1436C23.7855 10.3428 24.3191 9.27562 24.1857 8.74205C24.0523 8.27518 23.0519 8.40857 23.0519 8.40857H19.7171C19.7171 8.40857 19.4503 8.34187 19.3169 8.47527C19.1168 8.60866 19.0501 8.80875 19.0501 8.80875C19.0501 8.80875 18.5165 10.2094 17.8496 11.4099C16.3822 13.8777 15.782 14.0111 15.5819 13.8777C15.0483 13.5442 15.1817 12.4104 15.1817 11.6767C15.1817 9.27562 15.5819 8.27518 14.448 8.00839C14.1146 7.9417 13.8478 7.875 12.914 7.875C11.7135 7.875 10.713 7.875 10.1795 8.14179C9.77928 8.34187 9.5125 8.74205 9.71259 8.74205C9.91268 8.74205 10.4462 8.87545 10.713 9.20893C10.9798 9.8092 10.9798 10.8096 10.9798 10.8096C10.9798 10.8096 11.1799 13.6776 10.5129 14.0111C10.0461 14.2779 9.4458 13.7443 8.11188 11.4766C7.44491 10.3428 6.91134 9.00884 6.91134 9.00884C6.91134 9.00884 6.84464 8.74205 6.64455 8.60866C6.44446 8.47527 6.11098 8.40857 6.11098 8.40857H2.97625C2.97625 8.40857 2.50937 8.40857 2.30929 8.60866C2.17589 8.80875 2.30929 9.14223 2.30929 9.14223C2.30929 9.14223 4.77705 14.8781 7.5783 17.8128C10.1795 20.614 13.0474 20.4139 13.0474 20.4139V20.4139Z" stroke="#E0E0E0" stroke-width="1.85268"/>
</svg>
