<svg width="36" height="36" viewBox="0 0 36 36" fill="none" xmlns="http://www.w3.org/2000/svg">
<path d="M25.621 13.3333H24.6661C24.4207 13.3333 24.2217 13.532 24.2217 13.7777V17.7777C24.2217 18.0234 24.4207 18.2222 24.6661 18.2222H25.621C26.3198 18.2222 26.8883 17.6536 26.8883 16.9549V14.6006C26.8883 13.9018 26.3198 13.3333 25.621 13.3333ZM25.9995 16.9548C25.9995 17.1636 25.8298 17.3333 25.621 17.3333H25.1106V14.2221H25.621C25.8298 14.2221 25.9995 14.3918 25.9995 14.6006V16.9548Z" fill="#808081"/>
<rect x="25" y="14" width="1" height="4" fill="#808081"/>
<path d="M22.001 8.88881H12.2236C10.5081 8.88881 9.1123 10.2859 9.1123 12.0034V23.9965C9.1123 25.7139 10.5081 27.1111 12.2236 27.1111H22.001C23.7165 27.1111 25.1123 25.7139 25.1123 23.9965V12.0034C25.1123 10.2859 23.7165 8.88881 22.001 8.88881ZM24.2234 23.9965C24.2234 25.224 23.2264 26.2221 22.0009 26.2221H12.2236C10.9981 26.2221 10.0011 25.2239 10.0011 23.9965V12.0034C10.0011 10.7759 10.9981 9.77774 12.2236 9.77774H22.0009C23.2264 9.77774 24.2234 10.776 24.2234 12.0034V23.9965Z" fill="#333333"/>
<path d="M22.8834 9.25386L22.2329 5.67528C22.0618 4.73563 21.1807 3.99995 20.2265 3.99995H13.999C13.045 3.99995 12.1636 4.73563 11.9927 5.67528L11.3422 9.25386C11.3185 9.38361 11.3539 9.51675 11.4383 9.61799C11.5226 9.71923 11.6476 9.77775 11.7794 9.77775H22.4461C22.5778 9.77775 22.7028 9.7191 22.7873 9.61799C22.8717 9.51682 22.9071 9.38361 22.8834 9.25386ZM12.312 8.88882L12.8672 5.83413C12.9605 5.32157 13.4787 4.88882 13.9989 4.88882H20.2264C20.7467 4.88882 21.2649 5.32202 21.3582 5.83413L21.9135 8.88882H12.312Z" fill="#333333"/>
<path d="M22.7853 26.382C22.701 26.2808 22.576 26.2222 22.4442 26.2222H11.7775C11.6458 26.2222 11.5208 26.2809 11.4363 26.382C11.3519 26.4831 11.3165 26.6163 11.3402 26.7461L11.9908 30.3247C12.1618 31.2644 13.0432 32 13.9971 32H20.2246C21.1788 32 22.06 31.2644 22.2309 30.3247L22.8814 26.7461C22.9051 26.6163 22.8697 26.4832 22.7853 26.382ZM21.3564 30.1657C21.2631 30.678 20.7449 31.111 20.2247 31.111H13.9972C13.4769 31.111 12.9587 30.6783 12.8654 30.1657L12.3101 27.111H21.9116L21.3564 30.1657Z" fill="#333333"/>
</svg>
