<svg width="21" height="21" viewBox="0 0 21 21" fill="none" xmlns="http://www.w3.org/2000/svg">
<path fill-rule="evenodd" clip-rule="evenodd" d="M16.3687 4.63128C16.7104 4.97299 16.7104 5.52701 16.3687 5.86872L5.86872 16.3687C5.52701 16.7104 4.97299 16.7104 4.63128 16.3687C4.28957 16.027 4.28957 15.473 4.63128 15.1313L15.1313 4.63128C15.473 4.28957 16.027 4.28957 16.3687 4.63128Z" fill="#828282"/>
<path fill-rule="evenodd" clip-rule="evenodd" d="M4.63128 4.63128C4.97299 4.28957 5.52701 4.28957 5.86872 4.63128L16.3687 15.1313C16.7104 15.473 16.7104 16.027 16.3687 16.3687C16.027 16.7104 15.473 16.7104 15.1313 16.3687L4.63128 5.86872C4.28957 5.52701 4.28957 4.97299 4.63128 4.63128Z" fill="#828282"/>
</svg>
