<svg width="20" height="20" viewBox="0 0 20 20" fill="none" xmlns="http://www.w3.org/2000/svg">
<g id="YouTube">
<g id="YouTube_2">
<rect id="Rectangle" width="20" height="20" rx="10" fill="#FF0000"/>
<path id="Exclude" fill-rule="evenodd" clip-rule="evenodd" d="M14.8908 5.89124C15.4262 6.03539 15.8484 6.45755 15.9925 6.99297C16.2602 7.97114 16.2499 10.0098 16.2499 10.0098C16.2499 10.0098 16.2499 12.0383 15.9925 13.0164C15.8484 13.5518 15.4262 13.974 14.8908 14.1181C13.9126 14.3756 9.99997 14.3756 9.99997 14.3756C9.99997 14.3756 6.0976 14.3756 5.10914 14.1078C4.57372 13.9637 4.15156 13.5415 4.00741 13.0061C3.75 12.0383 3.75 9.99955 3.75 9.99955C3.75 9.99955 3.75 7.97114 4.00741 6.99297C4.15156 6.45755 4.58402 6.0251 5.10914 5.88095C6.0873 5.62354 9.99997 5.62354 9.99997 5.62354C9.99997 5.62354 13.9126 5.62354 14.8908 5.89124ZM12.0069 9.99962L8.75322 11.8736V8.12565L12.0069 9.99962Z" fill="white"/>
</g>
</g>
</svg>
